<svg xmlns="http://www.w3.org/2000/svg" viewBox="0 0 554.33 554.33"><defs><linearGradient id="a" x1="7.5" x2="546.83" y1="277.17" y2="277.17" gradientUnits="userSpaceOnUse"><stop offset="0" stop-color="#ff2a54"/><stop offset=".99" stop-color="#ff006a"/></linearGradient></defs><circle cx="277.17" cy="277.17" r="269.67" fill="url(#a)"/><path fill="#fff" d="M473.15 81.18a277.16 277.16 0 1 0-392 392 277.16 277.16 0 1 0 392-392zM91.79 91.79a262.16 262.16 0 0 1 370.76 0c97.75 97.75 102 254.12 12.8 357V277.17C475.35 167.89 386.44 79 277.17 79S79 167.89 79 277.17V448.8a262.18 262.18 0 0 1 12.81-357zM94 464.69V277.17C94 176.16 176.16 94 277.17 94s183.18 82.18 183.18 183.19v187.5a262.11 262.11 0 0 1-366.37 0zm128.4-220.86c-15.3 1-30.24-13.94-30.72-30.8-.55-19.57 8.82-30.77 26.16-31.26 16.21-.47 25 10.62 25.73 32.31.48 15.5-9.07 28.92-21.19 29.75zM396 213.05c-.05 15.61-9.85 26.22-24.24 26.24-13.28 0-23.87-13.09-23.74-29.37.14-15.91 10.89-30.35 22.82-30.63 13.09-.29 25.22 15.96 25.16 33.76zm-5.68 113c-.46 1.88-11.76 46.26-54.79 60.19a79.43 79.43 0 0 1-24.44 3.76 86.08 86.08 0 0 1-66.42-32 7.5 7.5 0 0 1 11.65-9.45c18.25 22.53 48.23 31.93 74.6 23.4 35.16-11.38 44.46-47.93 44.84-49.48a7.5 7.5 0 1 1 14.57 3.53z"/></svg>