<svg xmlns="http://www.w3.org/2000/svg" viewBox="0 0 684 224"><path fill="none" stroke="#000" stroke-miterlimit="10" stroke-width="4" d="M2 2h680v220H2z"/><path d="M176.6 40l.23 3.2a9.68 9.68 0 0 1 8-3.71q4.4 0 6.55 2.59t2.2 7.72v17.84h-7.4V49.93a4.78 4.78 0 0 0-1-3.41 4.57 4.57 0 0 0-3.4-1.07 5.1 5.1 0 0 0-4.78 2.67v19.52h-7.39V40zM198 53.54a16.5 16.5 0 0 1 1.58-7.34 11.58 11.58 0 0 1 4.57-5 13.29 13.29 0 0 1 6.92-1.77 12.64 12.64 0 0 1 9.15 3.43 13.76 13.76 0 0 1 3.95 9.31l.05 1.9q0 6.36-3.55 10.22a13.78 13.78 0 0 1-19.1 0Q198 60.47 198 53.87zm7.39.52a10.33 10.33 0 0 0 1.49 6 5.32 5.32 0 0 0 8.44 0c1-1.37 1.51-3.57 1.51-6.59a10.31 10.31 0 0 0-1.51-6 4.91 4.91 0 0 0-4.25-2.13 4.81 4.81 0 0 0-4.19 2.12q-1.49 2.18-1.5 6.6zm22.22-.47q0-6.47 2.91-10.31a9.41 9.41 0 0 1 7.94-3.84 8.49 8.49 0 0 1 6.68 3v-14.1h7.42v39.3h-6.68l-.36-3a8.68 8.68 0 0 1-7.11 3.46 9.41 9.41 0 0 1-7.84-3.85q-2.95-3.81-2.96-10.66zm7.4.55a11 11 0 0 0 1.35 6 4.44 4.44 0 0 0 3.94 2.08 5 5 0 0 0 4.84-2.9V48.35a4.89 4.89 0 0 0-4.79-2.9q-5.35 0-5.35 8.69zM271 68.15a13.58 13.58 0 0 1-9.91-3.74 13.28 13.28 0 0 1-3.83-9.95v-.72a16.74 16.74 0 0 1 1.61-7.45 11.92 11.92 0 0 1 4.57-5.07 12.87 12.87 0 0 1 6.74-1.78 11.5 11.5 0 0 1 8.97 3.56q3.27 3.58 3.26 10.16v3h-17.62a6.88 6.88 0 0 0 2.21 4.39 6.53 6.53 0 0 0 4.57 1.64 8 8 0 0 0 6.67-3.1l3.64 4.07a11.09 11.09 0 0 1-4.51 3.67 14.73 14.73 0 0 1-6.37 1.32zm-.84-22.75a4.63 4.63 0 0 0-3.57 1.49 7.73 7.73 0 0 0-1.76 4.27h10.29v-.59a5.55 5.55 0 0 0-1.33-3.82 4.77 4.77 0 0 0-3.6-1.35zM301 54.66h-14.4v-6H301zm16.26 2.51L322.38 40h7.93l-11.13 32-.62 1.46q-2.47 5.43-8.18 5.43a11.8 11.8 0 0 1-3.28-.49v-5.6h1.13a6 6 0 0 0 3.13-.64A4.21 4.21 0 0 0 313 70l.87-2.28L304.16 40h8zm24.82-24.02V40h4.73v5.43h-4.73v13.76a3.3 3.3 0 0 0 .58 2.2 3 3 0 0 0 2.26.67 11.66 11.66 0 0 0 2.17-.18v5.6a15 15 0 0 1-4.48.67q-7.77 0-7.93-7.86V45.38h-4V40h4v-6.8zm7.7 20.44q0-6.47 2.9-10.31a9.42 9.42 0 0 1 7.94-3.84 8.48 8.48 0 0 1 6.68 3v-14.1h7.42v39.3H368l-.35-3a8.71 8.71 0 0 1-7.12 3.46 9.42 9.42 0 0 1-7.84-3.85q-2.91-3.81-2.91-10.66zm7.39.55a10.86 10.86 0 0 0 1.36 6 4.42 4.42 0 0 0 3.94 2.08 5 5 0 0 0 4.83-2.9V48.35a4.87 4.87 0 0 0-4.78-2.9q-5.35 0-5.35 8.69zm31.09 13.5h-7.42v-39.3h7.42zm20.46-12.98h-14.4v-6h14.4zm17.45 7.53a4.89 4.89 0 0 0 3.33-1.13 4 4 0 0 0 1.33-3h6.93a9.55 9.55 0 0 1-1.53 5.15 10.25 10.25 0 0 1-4.14 3.64 13 13 0 0 1-5.79 1.29 12 12 0 0 1-9.36-3.78q-3.44-3.77-3.43-10.42v-.49q0-6.39 3.4-10.21a11.88 11.88 0 0 1 9.34-3.81 11.62 11.62 0 0 1 8.32 3 10.44 10.44 0 0 1 3.19 7.86h-6.93a5.12 5.12 0 0 0-1.33-3.51 4.94 4.94 0 0 0-7.28.54q-1.32 1.88-1.32 6.11v.77c0 2.85.44 4.9 1.3 6.15a4.54 4.54 0 0 0 3.97 1.84zm14.66-8.65a16.36 16.36 0 0 1 1.59-7.34 11.55 11.55 0 0 1 4.56-5 13.32 13.32 0 0 1 6.92-1.77 12.63 12.63 0 0 1 9.15 3.43 13.76 13.76 0 0 1 3.95 9.32l.05 1.9q0 6.36-3.55 10.22a13.78 13.78 0 0 1-19.1 0q-3.57-3.84-3.57-10.44zm7.39.52a10.33 10.33 0 0 0 1.49 6 5.32 5.32 0 0 0 8.44 0q1.52-2.05 1.51-6.59a10.23 10.23 0 0 0-1.51-6 4.91 4.91 0 0 0-4.25-2.13 4.83 4.83 0 0 0-4.19 2.12q-1.48 2.18-1.49 6.6zm38.94-7.17a19.47 19.47 0 0 0-2.66-.21q-4.2 0-5.5 2.84v18.12h-7.39V40h7l.21 3.3a6.85 6.85 0 0 1 6.18-3.86 7.55 7.55 0 0 1 2.31.34zM503 68.15a13.58 13.58 0 0 1-9.91-3.74 13.28 13.28 0 0 1-3.82-9.95v-.72a16.61 16.61 0 0 1 1.61-7.45 11.83 11.83 0 0 1 4.56-5.07 12.89 12.89 0 0 1 6.75-1.78A11.53 11.53 0 0 1 511.1 43q3.25 3.58 3.26 10.16v3h-17.63a6.88 6.88 0 0 0 2.16 4.35 6.57 6.57 0 0 0 4.57 1.64 8 8 0 0 0 6.68-3.1l3.63 4.07a11.12 11.12 0 0 1-4.5 3.67 14.78 14.78 0 0 1-6.27 1.36zm-.84-22.75a4.63 4.63 0 0 0-3.57 1.49 7.73 7.73 0 0 0-1.75 4.27h10.28v-.59a5.5 5.5 0 0 0-1.33-3.82 4.75 4.75 0 0 0-3.66-1.35zM87.68 108.87l4.76-11.15h5.14L90 113.54v8.37h-4.7v-8.57l-7.51-15.62h5.12zm11.69 3.88a11.23 11.23 0 0 1 .57-3.63 8.17 8.17 0 0 1 1.65-2.89 7.51 7.51 0 0 1 2.66-1.93 8.65 8.65 0 0 1 3.59-.7 8.78 8.78 0 0 1 3.61.7 7.51 7.51 0 0 1 2.66 1.93 8.35 8.35 0 0 1 1.66 2.89 11.51 11.51 0 0 1 .56 3.63v.35a11.5 11.5 0 0 1-.56 3.65 8.53 8.53 0 0 1-1.65 2.9 7.4 7.4 0 0 1-2.66 1.92 8.83 8.83 0 0 1-3.58.69 9 9 0 0 1-3.62-.69 7.52 7.52 0 0 1-2.67-1.92 8.22 8.22 0 0 1-1.65-2.9 11.22 11.22 0 0 1-.57-3.65zm4.62.35a9.51 9.51 0 0 0 .22 2.12 5.26 5.26 0 0 0 .68 1.73 3.53 3.53 0 0 0 1.2 1.17 3.46 3.46 0 0 0 1.79.43 3.35 3.35 0 0 0 1.74-.43 3.5 3.5 0 0 0 1.19-1.17 5.48 5.48 0 0 0 .67-1.73 9.51 9.51 0 0 0 .22-2.12v-.35a9.19 9.19 0 0 0-.22-2.07 5.57 5.57 0 0 0-.67-1.73 3.26 3.26 0 0 0-3-1.61 3.4 3.4 0 0 0-1.76.43 3.45 3.45 0 0 0-1.19 1.18 5.35 5.35 0 0 0-.68 1.73 9.19 9.19 0 0 0-.22 2.07zm27.89 6.28a6.9 6.9 0 0 1-2.2 2.11 5.43 5.43 0 0 1-2.82.77 7.18 7.18 0 0 1-2.55-.44 4.82 4.82 0 0 1-2-1.37 6.57 6.57 0 0 1-1.29-2.39 11.91 11.91 0 0 1-.45-3.5v-10.63h4.62v10.67a9.54 9.54 0 0 0 .15 1.84 3.14 3.14 0 0 0 .51 1.21 1.94 1.94 0 0 0 .91.65 4 4 0 0 0 1.38.2 4.31 4.31 0 0 0 2.25-.52 3.44 3.44 0 0 0 1.31-1.44v-12.61h4.63v18h-4.18zm26.56-17.86H151v20.39h-4.7v-20.39h-7.36v-3.8h19.5zm14.27 17.86a6.9 6.9 0 0 1-2.2 2.11 5.4 5.4 0 0 1-2.81.77 7.24 7.24 0 0 1-2.56-.44 4.73 4.73 0 0 1-2-1.37 6.28 6.28 0 0 1-1.29-2.39 11.56 11.56 0 0 1-.46-3.5v-10.63H166v10.67a8.73 8.73 0 0 0 .16 1.84 3 3 0 0 0 .5 1.21 2 2 0 0 0 .92.65 4 4 0 0 0 1.38.2 4.27 4.27 0 0 0 2.24-.52 3.44 3.44 0 0 0 1.31-1.44v-12.61h4.64v18H173zm25.15-6.28a14.25 14.25 0 0 1-.44 3.69 8.44 8.44 0 0 1-1.32 2.89 6 6 0 0 1-2.19 1.89 6.57 6.57 0 0 1-3.06.67 6 6 0 0 1-2.73-.59 5.8 5.8 0 0 1-2-1.65l-.22 1.91h-4.15V96.39h4.62v9.17a5.6 5.6 0 0 1 1.88-1.44 5.84 5.84 0 0 1 2.55-.52 6.69 6.69 0 0 1 3.08.68 6.2 6.2 0 0 1 2.2 1.9 8.35 8.35 0 0 1 1.32 2.89 14.34 14.34 0 0 1 .44 3.68zm-4.61-.35a12.39 12.39 0 0 0-.17-2.07 5.36 5.36 0 0 0-.57-1.72 3.12 3.12 0 0 0-1.11-1.17 3.21 3.21 0 0 0-1.74-.43 3.55 3.55 0 0 0-2 .53 3.37 3.37 0 0 0-1.22 1.46v7.16a3.37 3.37 0 0 0 1.22 1.46 3.68 3.68 0 0 0 2.08.53 3.36 3.36 0 0 0 1.73-.4 3.11 3.11 0 0 0 1.09-1.13 5.36 5.36 0 0 0 .57-1.72 12.93 12.93 0 0 0 .17-2.15zm17.56 9.49a10.14 10.14 0 0 1-3.78-.68 9 9 0 0 1-2.9-1.85 8.08 8.08 0 0 1-1.87-2.76 8.77 8.77 0 0 1-.66-3.4v-.66a10.58 10.58 0 0 1 .65-3.77 8.83 8.83 0 0 1 1.81-2.93 8.33 8.33 0 0 1 2.76-1.91 9.43 9.43 0 0 1 6.93 0 7.23 7.23 0 0 1 2.58 1.8 7.8 7.8 0 0 1 1.6 2.8 11.22 11.22 0 0 1 .55 3.62v2h-12.19a5.2 5.2 0 0 0 .54 1.67 4.52 4.52 0 0 0 1 1.3 4.73 4.73 0 0 0 1.44.85 5.12 5.12 0 0 0 1.78.3 7.12 7.12 0 0 0 2.64-.53 5.63 5.63 0 0 0 1.15-.64 4.4 4.4 0 0 0 .93-.9l2.3 2.5a6.2 6.2 0 0 1-1.12 1.2 8.08 8.08 0 0 1-1.62 1 11.16 11.16 0 0 1-2.09.74 10.21 10.21 0 0 1-2.43.25zm-.55-14.9a3.68 3.68 0 0 0-1.43.27 3.59 3.59 0 0 0-1.14.79 4.64 4.64 0 0 0-.82 1.23 6.82 6.82 0 0 0-.5 1.6H214v-.37a4.47 4.47 0 0 0-.29-1.38 3.19 3.19 0 0 0-.71-1.12 3.38 3.38 0 0 0-1.14-.75 4.16 4.16 0 0 0-1.6-.27zm32.62 5.43a12.78 12.78 0 0 1 .51-3.7 8.72 8.72 0 0 1 1.45-2.89 6.76 6.76 0 0 1 2.26-1.9 6.5 6.5 0 0 1 3-.68 6.81 6.81 0 0 1 2.81.54 5.91 5.91 0 0 1 2.09 1.57v-9.32h3.07v25.52h-2.82l-.14-1.9a5.88 5.88 0 0 1-2.14 1.67 7.09 7.09 0 0 1-2.91.56 6.21 6.21 0 0 1-2.95-.7 6.7 6.7 0 0 1-2.25-1.93 9.1 9.1 0 0 1-1.44-2.89 12 12 0 0 1-.52-3.6zm3.08.35a10.56 10.56 0 0 0 .28 2.49 6.61 6.61 0 0 0 .87 2.08 4.42 4.42 0 0 0 1.5 1.42 4.34 4.34 0 0 0 2.2.52 5.13 5.13 0 0 0 1.41-.18 4 4 0 0 0 2.06-1.34 6 6 0 0 0 .7-1v-8.34a5.39 5.39 0 0 0-1.61-1.81 4.34 4.34 0 0 0-2.53-.7 4.19 4.19 0 0 0-3.73 2 6.67 6.67 0 0 0-.87 2.09 10.7 10.7 0 0 0-.28 2.5zm17.04-.37a11.38 11.38 0 0 1 .56-3.61 8.82 8.82 0 0 1 1.62-2.9 7.57 7.57 0 0 1 2.57-1.93 8.57 8.57 0 0 1 6.83 0 7.42 7.42 0 0 1 2.58 1.93 8.82 8.82 0 0 1 1.62 2.9 11.1 11.1 0 0 1 .56 3.61v.37a11 11 0 0 1-.56 3.6 8.67 8.67 0 0 1-1.62 2.89 7.35 7.35 0 0 1-2.57 1.93 8.68 8.68 0 0 1-6.83 0 7.39 7.39 0 0 1-2.58-1.93 8.67 8.67 0 0 1-1.62-2.89 11.23 11.23 0 0 1-.56-3.6zm3.07.37a9.91 9.91 0 0 0 .32 2.53 6.62 6.62 0 0 0 .95 2.12 4.82 4.82 0 0 0 1.6 1.45 4.65 4.65 0 0 0 2.25.53 4.49 4.49 0 0 0 2.21-.53 4.82 4.82 0 0 0 1.6-1.45 6.64 6.64 0 0 0 1-2.12 9.91 9.91 0 0 0 .31-2.53v-.37a9.87 9.87 0 0 0-.32-2.51 6.65 6.65 0 0 0-1-2.12 4.79 4.79 0 0 0-1.59-1.45 4.48 4.48 0 0 0-2.24-.54 4.4 4.4 0 0 0-2.22.54 4.89 4.89 0 0 0-1.59 1.45 6.62 6.62 0 0 0-.95 2.12 9.87 9.87 0 0 0-.32 2.51zM287 115.4l.37 2.57.45-2.57 2.87-11.47h2l2.85 11.47.49 2.82.44-2.82 2-11.47h2.72l-3.82 18H295l-2.81-11-.47-2.79-.44 2.79-2.78 11H286l-3.83-18h2.73zm20.47-11.47l.22 2.66a7 7 0 0 1 2.41-2.18 6.54 6.54 0 0 1 3.19-.81 7.68 7.68 0 0 1 2.56.4 4.89 4.89 0 0 1 2 1.25 5.75 5.75 0 0 1 1.26 2.15 9.79 9.79 0 0 1 .44 3.09v11.42h-3.08v-11.35a7 7 0 0 0-.26-2 3 3 0 0 0-2.07-2.09 6.11 6.11 0 0 0-1.74-.23 4.84 4.84 0 0 0-2.71.77 5.73 5.73 0 0 0-1.87 2v12.89h-3.08v-18zm18.14-7.54h9.19v22.86h5.86v2.66h-15.05v-2.66h6.12V99.07h-6.12zm19.07 16.36a11.11 11.11 0 0 1 .57-3.61 8.47 8.47 0 0 1 1.62-2.9 7.53 7.53 0 0 1 2.56-1.93 8.59 8.59 0 0 1 6.84 0 7.48 7.48 0 0 1 2.57 1.93 8.47 8.47 0 0 1 1.62 2.9 11.11 11.11 0 0 1 .57 3.61v.37a11 11 0 0 1-.57 3.6 8.33 8.33 0 0 1-1.62 2.89 7.32 7.32 0 0 1-2.56 1.93 8 8 0 0 1-3.41.7 8.09 8.09 0 0 1-3.43-.7 7.35 7.35 0 0 1-2.57-1.93 8.33 8.33 0 0 1-1.62-2.89 11 11 0 0 1-.57-3.6zm3.08.37a9.91 9.91 0 0 0 .31 2.53 6.43 6.43 0 0 0 1 2.12 4.73 4.73 0 0 0 1.6 1.45 4.61 4.61 0 0 0 2.24.53 4.55 4.55 0 0 0 2.22-.53 4.82 4.82 0 0 0 1.6-1.45 6.62 6.62 0 0 0 .95-2.12 9.91 9.91 0 0 0 .32-2.53v-.37a9.44 9.44 0 0 0-.33-2.51 6.64 6.64 0 0 0-1-2.12 4.82 4.82 0 0 0-1.6-1.45 4.87 4.87 0 0 0-4.46 0 4.76 4.76 0 0 0-1.58 1.45 6.43 6.43 0 0 0-1 2.12 9.86 9.86 0 0 0-.31 2.51zm30.01 8.79a3.85 3.85 0 0 1-.29-.87 9.53 9.53 0 0 1-.15-1.09 9.09 9.09 0 0 1-1 .88 7.8 7.8 0 0 1-1.27.73 7.93 7.93 0 0 1-1.47.5 7.35 7.35 0 0 1-1.66.18 7.51 7.51 0 0 1-2.58-.42 6 6 0 0 1-2-1.12 5 5 0 0 1-1.25-1.7 5.11 5.11 0 0 1-.44-2.11 5.5 5.5 0 0 1 .59-2.59 5.19 5.19 0 0 1 1.67-1.85 7.79 7.79 0 0 1 2.6-1.1 14.28 14.28 0 0 1 3.4-.37h3.36v-1.38a3.43 3.43 0 0 0-.3-1.46 3.08 3.08 0 0 0-.85-1.11 3.88 3.88 0 0 0-1.34-.7 5.69 5.69 0 0 0-1.77-.25 5.14 5.14 0 0 0-1.63.23 4 4 0 0 0-1.22.61 2.81 2.81 0 0 0-.78.91 2.34 2.34 0 0 0-.27 1.09H366a4.25 4.25 0 0 1 .51-1.93 5.23 5.23 0 0 1 1.41-1.7 7.16 7.16 0 0 1 2.24-1.22 9 9 0 0 1 3-.47 10.66 10.66 0 0 1 2.84.4 6.62 6.62 0 0 1 2.27 1.13 5.45 5.45 0 0 1 1.5 1.89 5.9 5.9 0 0 1 .55 2.64V118a11.69 11.69 0 0 0 .16 1.9 9 9 0 0 0 .47 1.75v.27zm-5.43-2.35a5.69 5.69 0 0 0 1.68-.23 6.27 6.27 0 0 0 1.42-.61 5.41 5.41 0 0 0 1.1-.87 4.38 4.38 0 0 0 .74-1v-3.63h-2.86a9.05 9.05 0 0 0-4.19.79 2.66 2.66 0 0 0-1.49 2.51 3.28 3.28 0 0 0 .22 1.23 2.53 2.53 0 0 0 .67 1 3.18 3.18 0 0 0 1.13.64 4.78 4.78 0 0 0 1.58.17zm13.46-6.79a13.14 13.14 0 0 1 .5-3.7 8.72 8.72 0 0 1 1.45-2.89 6.79 6.79 0 0 1 2.27-1.9 6.46 6.46 0 0 1 3-.68 6.85 6.85 0 0 1 2.82.54 5.88 5.88 0 0 1 2.08 1.57v-9.32H401v25.52h-2.82L398 120a6 6 0 0 1-2.14 1.67 7.09 7.09 0 0 1-2.91.56 6.15 6.15 0 0 1-2.95-.7 6.7 6.7 0 0 1-2.25-1.93 9.33 9.33 0 0 1-1.45-2.89 12.33 12.33 0 0 1-.51-3.6zm3.07.35a11.11 11.11 0 0 0 .28 2.49 6.4 6.4 0 0 0 .88 2.08 4.16 4.16 0 0 0 3.69 1.94 5.13 5.13 0 0 0 1.41-.18 4.3 4.3 0 0 0 1.15-.52 4.18 4.18 0 0 0 .91-.82 5.49 5.49 0 0 0 .7-1v-8.34a5.28 5.28 0 0 0-1.61-1.81 4.3 4.3 0 0 0-2.52-.7 4.39 4.39 0 0 0-2.22.53 4.34 4.34 0 0 0-1.51 1.44 6.46 6.46 0 0 0-.88 2.09 11.27 11.27 0 0 0-.28 2.5zm18.41-9.19h9.18v15.32h5.87v2.66h-15.05v-2.66h6.11v-12.64h-6.11zm5.72-4.71a1.87 1.87 0 0 1 .46-1.29 2.06 2.06 0 0 1 2.76 0 1.88 1.88 0 0 1 .47 1.29 1.76 1.76 0 0 1-.47 1.24 2.15 2.15 0 0 1-2.76 0 1.75 1.75 0 0 1-.46-1.24zm17 4.71l.22 2.66a7 7 0 0 1 2.4-2.18 6.61 6.61 0 0 1 3.2-.81 7.68 7.68 0 0 1 2.56.4 4.89 4.89 0 0 1 2 1.25 5.6 5.6 0 0 1 1.25 2.15 9.52 9.52 0 0 1 .44 3.09v11.42H439v-11.35a6.65 6.65 0 0 0-.27-2 3.11 3.11 0 0 0-.78-1.34 3.22 3.22 0 0 0-1.28-.75 6.16 6.16 0 0 0-1.74-.23 4.84 4.84 0 0 0-2.71.77 5.64 5.64 0 0 0-1.87 2v12.89h-3.08v-18zm17.06 8.84a13.52 13.52 0 0 1 .49-3.7 8.67 8.67 0 0 1 1.42-2.89 6.76 6.76 0 0 1 2.26-1.9 6.57 6.57 0 0 1 3-.68 6.86 6.86 0 0 1 2.92.59 5.93 5.93 0 0 1 2.13 1.7l.15-2h2.79v17.6a8.39 8.39 0 0 1-.56 3.15 6.58 6.58 0 0 1-1.56 2.34 6.67 6.67 0 0 1-2.4 1.47 9.19 9.19 0 0 1-3.09.49 9.48 9.48 0 0 1-3.41-.67 8.27 8.27 0 0 1-1.78-1 5.91 5.91 0 0 1-1.47-1.48l1.6-1.85a7.48 7.48 0 0 0 1.16 1.16 5.85 5.85 0 0 0 1.21.75 5.39 5.39 0 0 0 1.23.41 6.42 6.42 0 0 0 1.23.13 5.87 5.87 0 0 0 2-.32 4.16 4.16 0 0 0 1.5-.92 4.12 4.12 0 0 0 1-1.51 5.88 5.88 0 0 0 .33-2v-1.55a6 6 0 0 1-2.21 1.61 6.94 6.94 0 0 1-2.83.54 6.27 6.27 0 0 1-3-.7 6.7 6.7 0 0 1-2.25-1.93 9.07 9.07 0 0 1-1.42-2.89 12.68 12.68 0 0 1-.5-3.6zm3.08.35a11.11 11.11 0 0 0 .27 2.49 6.18 6.18 0 0 0 .87 2.08 4.16 4.16 0 0 0 3.69 1.94 5 5 0 0 0 1.44-.19 4.14 4.14 0 0 0 1.14-.54 4.47 4.47 0 0 0 .91-.83 5.9 5.9 0 0 0 .7-1.06v-8.24a5.33 5.33 0 0 0-.7-1 4.67 4.67 0 0 0-.91-.81 4.47 4.47 0 0 0-1.15-.53 4.74 4.74 0 0 0-1.4-.19 4.38 4.38 0 0 0-2.21.53 4.34 4.34 0 0 0-1.51 1.44 6.23 6.23 0 0 0-.87 2.09 11.27 11.27 0 0 0-.27 2.5zm39.73-9.19l.09 1.7a4 4 0 0 1 1.43-1.48 4.18 4.18 0 0 1 2.15-.55 3.23 3.23 0 0 1 3.31 1.93 4 4 0 0 1 3.52-1.93 3.85 3.85 0 0 1 3 1.21 5.45 5.45 0 0 1 1.07 3.67v13.43h-2.93v-13.46c0-1.5-.69-2.25-2.07-2.24a2.67 2.67 0 0 0-1 .15 1.8 1.8 0 0 0-.67.41 2 2 0 0 0-.41.59 2.6 2.6 0 0 0-.2.71v13.84h-2.92v-13.48a2.51 2.51 0 0 0-.49-1.66 1.85 1.85 0 0 0-1.52-.56 2.56 2.56 0 0 0-1.5.38 2.3 2.3 0 0 0-.78 1v14.31h-2.92v-18zm18.13 8.82a11.11 11.11 0 0 1 .57-3.61 8.82 8.82 0 0 1 1.62-2.9 7.53 7.53 0 0 1 2.56-1.93 8.59 8.59 0 0 1 6.84 0 7.61 7.61 0 0 1 2.58 1.93 8.82 8.82 0 0 1 1.62 2.9 11.38 11.38 0 0 1 .56 3.61v.37a11.23 11.23 0 0 1-.56 3.6 8.67 8.67 0 0 1-1.62 2.89 7.44 7.44 0 0 1-2.57 1.93 8 8 0 0 1-3.41.7 8.09 8.09 0 0 1-3.43-.7 7.35 7.35 0 0 1-2.57-1.93 8.67 8.67 0 0 1-1.62-2.89 11 11 0 0 1-.57-3.6zm3.08.37a9.91 9.91 0 0 0 .31 2.53 6.43 6.43 0 0 0 1 2.12 4.73 4.73 0 0 0 1.6 1.45 4.61 4.61 0 0 0 2.24.53 4.55 4.55 0 0 0 2.22-.53 4.82 4.82 0 0 0 1.6-1.45 6.62 6.62 0 0 0 1-2.12 9.91 9.91 0 0 0 .32-2.53v-.37a9.44 9.44 0 0 0-.33-2.51 6.43 6.43 0 0 0-1-2.12 4.89 4.89 0 0 0-1.59-1.45 4.9 4.9 0 0 0-4.47 0 4.76 4.76 0 0 0-1.58 1.45 6.43 6.43 0 0 0-1 2.12 9.86 9.86 0 0 0-.31 2.51zm17.63-.35a12.78 12.78 0 0 1 .51-3.7 8.9 8.9 0 0 1 1.44-2.89 6.89 6.89 0 0 1 2.27-1.9 6.5 6.5 0 0 1 3-.68 6.81 6.81 0 0 1 2.81.54 5.91 5.91 0 0 1 2.09 1.57v-9.32h3.07v25.52h-2.82l-.14-1.9a6 6 0 0 1-2.14 1.67 7.09 7.09 0 0 1-2.91.56 6.18 6.18 0 0 1-3-.7 6.7 6.7 0 0 1-2.25-1.93 9.1 9.1 0 0 1-1.44-2.89 12 12 0 0 1-.52-3.6zm3.08.35a10.56 10.56 0 0 0 .28 2.49 6.61 6.61 0 0 0 .87 2.08 4.16 4.16 0 0 0 3.7 1.94 5.13 5.13 0 0 0 1.41-.18 4.16 4.16 0 0 0 2.06-1.34 6 6 0 0 0 .7-1v-8.34a5.31 5.31 0 0 0-1.62-1.81 4.28 4.28 0 0 0-2.52-.7 4.19 4.19 0 0 0-3.73 2 6.67 6.67 0 0 0-.87 2.09 10.7 10.7 0 0 0-.28 2.5zm29.58 6.31a6.16 6.16 0 0 1-5.35 2.81 7.2 7.2 0 0 1-2.56-.44 5 5 0 0 1-2-1.37 6.36 6.36 0 0 1-1.25-2.37 12 12 0 0 1-.44-3.45v-10.68h3.07v10.72a10.22 10.22 0 0 0 .24 2.42 3.73 3.73 0 0 0 .69 1.54 2.55 2.55 0 0 0 1.14.81 4.91 4.91 0 0 0 1.55.23 5.41 5.41 0 0 0 3-.77 4.57 4.57 0 0 0 1.72-2.06v-12.89h3.09v18h-2.79zm9.24-23.04h9.18v22.86h5.87v2.66h-15v-2.66h6.11V99.07h-6.11zm27.87 25.85a9.17 9.17 0 0 1-3.48-.65 7.82 7.82 0 0 1-2.71-1.81 8.21 8.21 0 0 1-1.76-2.76 9.35 9.35 0 0 1-.63-3.47v-.7a10.34 10.34 0 0 1 .69-3.89 9 9 0 0 1 1.86-2.91 8.09 8.09 0 0 1 2.62-1.82 7.61 7.61 0 0 1 3-.63 8.14 8.14 0 0 1 3.39.67 6.68 6.68 0 0 1 2.42 1.86 8.17 8.17 0 0 1 1.44 2.8 12.58 12.58 0 0 1 .47 3.49v1.38H593a7 7 0 0 0 .47 2.31 5.9 5.9 0 0 0 1.17 1.89 5.36 5.36 0 0 0 4 1.73 6.25 6.25 0 0 0 2.92-.66 6.33 6.33 0 0 0 2.13-1.76l1.88 1.46a7 7 0 0 1-1.12 1.3 7.54 7.54 0 0 1-1.56 1.11 8.5 8.5 0 0 1-2 .77 9.75 9.75 0 0 1-2.41.29zm-.39-16.11a4.6 4.6 0 0 0-3.26 1.33 5.78 5.78 0 0 0-1.12 1.61 7.53 7.53 0 0 0-.64 2.21h9.67V111a7.29 7.29 0 0 0-.34-1.77 4.94 4.94 0 0 0-.86-1.58 4.28 4.28 0 0 0-1.42-1.13 4.44 4.44 0 0 0-2.03-.39zM62.44 156.22l.37 2.58.45-2.58 2.87-11.46h2L71 156.22l.49 2.83.44-2.83 2-11.46h2.72l-3.82 18h-2.46l-2.81-11-.47-2.79-.45 2.79-2.77 11h-2.43l-3.82-18h2.73zm29.47-11.79h.9c.31 0 .61.05.89.09a5.72 5.72 0 0 1 .78.14 3 3 0 0 1 .59.18l-.42 3a14.41 14.41 0 0 0-1.7-.29 13.13 13.13 0 0 0-1.69-.1 5.77 5.77 0 0 0-3.49 1 5.71 5.71 0 0 0-2 2.74v11.53h-3.06v-18h2.92l.15 2.86a8.18 8.18 0 0 1 2.64-2.34 7 7 0 0 1 3.49-.81zm9.09.33h9.19v15.32h5.86v2.65H101v-2.65h6.12v-12.65H101zm5.72-4.72a1.91 1.91 0 0 1 .45-1.29 2.1 2.1 0 0 1 2.77 0 1.87 1.87 0 0 1 .46 1.29 1.76 1.76 0 0 1-.46 1.25 1.84 1.84 0 0 1-3.22-1.25zm21.52.37v4.35h6.85v2.38h-6.85v9.76a4.72 4.72 0 0 0 .27 1.73 2.79 2.79 0 0 0 .73 1.09 2.7 2.7 0 0 0 1.07.57 4.85 4.85 0 0 0 1.29.17 9.29 9.29 0 0 0 1-.06l1-.14.94-.18.73-.15.43 2.17a4.48 4.48 0 0 1-.93.41 11.68 11.68 0 0 1-1.2.3 13.72 13.72 0 0 1-1.37.19c-.48 0-1 .07-1.44.07a7 7 0 0 1-2.23-.35 4.57 4.57 0 0 1-1.8-1.07 5.26 5.26 0 0 1-1.21-1.91 8.23 8.23 0 0 1-.44-2.84v-9.76h-4.72v-2.38h4.72v-4.35zm20.42 0v4.35h6.84v2.38h-6.84v9.76a5 5 0 0 0 .26 1.73 2.81 2.81 0 0 0 .74 1.09 2.64 2.64 0 0 0 1.07.57 4.83 4.83 0 0 0 1.28.17 9 9 0 0 0 1-.06l1-.14.95-.18.72-.15.43 2.17a4 4 0 0 1-.93.41 10.86 10.86 0 0 1-1.19.3 13.72 13.72 0 0 1-1.37.19c-.48 0-1 .07-1.44.07a7 7 0 0 1-2.23-.35 4.54 4.54 0 0 1-1.81-1.07 5.11 5.11 0 0 1-1.2-1.91 8.23 8.23 0 0 1-.44-2.84v-9.76h-4.72v-2.38h4.72v-4.35zm21.08 22.66a9.17 9.17 0 0 1-3.48-.65 8 8 0 0 1-2.72-1.81 8.41 8.41 0 0 1-1.76-2.76 9.35 9.35 0 0 1-.63-3.47v-.7a10.23 10.23 0 0 1 .7-3.9 8.85 8.85 0 0 1 1.85-2.9 8.13 8.13 0 0 1 2.63-1.82 7.56 7.56 0 0 1 3-.63 8 8 0 0 1 3.4.67 6.77 6.77 0 0 1 2.42 1.86 7.9 7.9 0 0 1 1.43 2.8 12.17 12.17 0 0 1 .48 3.49v1.38h-12.84a7.31 7.31 0 0 0 .48 2.31 6 6 0 0 0 1.16 1.88 5.27 5.27 0 0 0 1.77 1.27 5.5 5.5 0 0 0 2.28.47 6.16 6.16 0 0 0 2.92-.67 6.41 6.41 0 0 0 2.13-1.76l1.87 1.46a7.09 7.09 0 0 1-1.12 1.31 7.82 7.82 0 0 1-1.55 1.1 9.17 9.17 0 0 1-2 .78 9.87 9.87 0 0 1-2.42.29zm-.4-16.12a4.56 4.56 0 0 0-3.26 1.34 5.84 5.84 0 0 0-1.08 1.61 8.11 8.11 0 0 0-.64 2.2H174v-.23a6.51 6.51 0 0 0-.34-1.78 5.13 5.13 0 0 0-.85-1.58 4.41 4.41 0 0 0-1.42-1.13 4.58 4.58 0 0 0-2.05-.38zm15.66-2.19l.22 2.66a7.19 7.19 0 0 1 2.41-2.19 6.65 6.65 0 0 1 3.19-.8 7.68 7.68 0 0 1 2.56.4 4.87 4.87 0 0 1 2 1.24 5.69 5.69 0 0 1 1.26 2.15 9.86 9.86 0 0 1 .44 3.1v11.41H194v-11.34a7 7 0 0 0-.26-2 3.33 3.33 0 0 0-.79-1.35 3.09 3.09 0 0 0-1.28-.74 5.73 5.73 0 0 0-1.74-.23 4.76 4.76 0 0 0-2.71.77 5.62 5.62 0 0 0-1.87 2v12.89h-3.07v-18zm40.77 11.46l.37 2.58.45-2.58 2.87-11.46h2l2.85 11.46.49 2.83.45-2.83 2-11.46h2.72l-3.82 18h-2.45l-2.81-11-.47-2.79-.44 2.79-2.78 11h-2.42l-3.82-18h2.72zM244 144.76h9.18v15.32H259v2.65h-15v-2.65h6.11v-12.65H244zm5.71-4.72a1.87 1.87 0 0 1 .46-1.29 1.75 1.75 0 0 1 1.38-.52 1.78 1.78 0 0 1 1.38.52 1.88 1.88 0 0 1 .47 1.29 1.76 1.76 0 0 1-.47 1.25 1.81 1.81 0 0 1-1.38.5 1.78 1.78 0 0 1-1.38-.5 1.76 1.76 0 0 1-.51-1.29zm21.45.37v4.35H278v2.38h-6.84v9.76a5 5 0 0 0 .26 1.73 2.79 2.79 0 0 0 .73 1.09 2.68 2.68 0 0 0 1.08.57 4.83 4.83 0 0 0 1.28.17 9 9 0 0 0 1-.06l1-.14.95-.18.72-.15.43 2.17a4 4 0 0 1-.93.41 10.86 10.86 0 0 1-1.19.3c-.44.08-.89.15-1.37.19s-1 .07-1.44.07a7.1 7.1 0 0 1-2.24-.35 4.57 4.57 0 0 1-1.8-1.07 5.11 5.11 0 0 1-1.2-1.91 8 8 0 0 1-.44-2.84v-9.76h-4.72v-2.38H268v-4.35zm16.21 7.02a7 7 0 0 1 2.38-2.2 6.57 6.57 0 0 1 3.17-.8 7.74 7.74 0 0 1 2.57.4 5 5 0 0 1 2 1.27 5.74 5.74 0 0 1 1.26 2.19 10 10 0 0 1 .44 3.13v11.31h-3.07v-11.34a4.55 4.55 0 0 0-1.12-3.29 3.93 3.93 0 0 0-3-1.06 5.16 5.16 0 0 0-2.69.72 5.77 5.77 0 0 0-1.95 1.92v13h-3.06v-25.46h3.07zm36.9 6.15a11.06 11.06 0 0 1 .56-3.61 8.72 8.72 0 0 1 1.62-2.9 7.5 7.5 0 0 1 2.57-1.94 8.68 8.68 0 0 1 6.83 0 7.45 7.45 0 0 1 2.58 1.94 8.72 8.72 0 0 1 1.62 2.9 11.34 11.34 0 0 1 .56 3.61v.42a11.32 11.32 0 0 1-.56 3.6 8.77 8.77 0 0 1-1.62 2.89 7.48 7.48 0 0 1-2.57 1.93 8.68 8.68 0 0 1-6.83 0 7.42 7.42 0 0 1-2.58-1.93 8.77 8.77 0 0 1-1.62-2.89 11 11 0 0 1-.56-3.6zm3.07.37a9.54 9.54 0 0 0 .32 2.53 6.51 6.51 0 0 0 .95 2.12 4.69 4.69 0 0 0 1.6 1.44 4.54 4.54 0 0 0 2.25.53 4.38 4.38 0 0 0 2.21-.53 4.69 4.69 0 0 0 1.6-1.44 6.72 6.72 0 0 0 1-2.12 10 10 0 0 0 .32-2.53v-.37a10 10 0 0 0-.32-2.52 6.7 6.7 0 0 0-1-2.11 4.82 4.82 0 0 0-1.59-1.46 4.48 4.48 0 0 0-2.24-.54 4.4 4.4 0 0 0-2.22.54 4.92 4.92 0 0 0-1.59 1.46 6.45 6.45 0 0 0-.95 2.11 9.57 9.57 0 0 0-.32 2.52zm20.96-9.19l.22 2.66a7.19 7.19 0 0 1 2.41-2.19 6.65 6.65 0 0 1 3.19-.8 7.74 7.74 0 0 1 2.57.4 4.83 4.83 0 0 1 2 1.24 5.69 5.69 0 0 1 1.26 2.15 9.86 9.86 0 0 1 .44 3.1v11.41h-3.07v-11.34a6.61 6.61 0 0 0-.27-2 3.33 3.33 0 0 0-.79-1.35 3.09 3.09 0 0 0-1.28-.74 5.71 5.71 0 0 0-1.73-.23 4.77 4.77 0 0 0-2.72.77 5.62 5.62 0 0 0-1.87 2v12.89h-3.07v-18zm18.14-7.54h9.19v22.86h5.87v2.65h-15.06v-2.65h6.12v-20.19h-6.12zM393 156.35l.8 2.18 5.48-13.77h3.44l-9.12 20.75a12.39 12.39 0 0 1-.81 1.48 7.3 7.3 0 0 1-1.18 1.44 6.26 6.26 0 0 1-1.63 1.11 4.88 4.88 0 0 1-2.14.45h-.49l-.53-.07-.5-.09-.38-.08.5-2.51a2.07 2.07 0 0 1 .32 0h1.14a2 2 0 0 0 1.16-.35 4.57 4.57 0 0 0 .93-.83 6.31 6.31 0 0 0 .69-1c.2-.35.35-.63.46-.85l1.23-2.39-7.74-17.13h3.44zm44.91-17.8h4.67v16.76a7.88 7.88 0 0 1-.65 3.15 7.67 7.67 0 0 1-1.75 2.45 8.18 8.18 0 0 1-2.62 1.59 9 9 0 0 1-3.23.57 11.09 11.09 0 0 1-3.32-.47 7 7 0 0 1-2.57-1.39 6.25 6.25 0 0 1-1.67-2.31 8.42 8.42 0 0 1-.61-3.28h4.68a4 4 0 0 0 .86 2.82 3.53 3.53 0 0 0 2.63.87 3.44 3.44 0 0 0 2.59-1.14 3.8 3.8 0 0 0 .72-1.28 4.8 4.8 0 0 0 .26-1.58zm20.4 24.18a4.18 4.18 0 0 1-.31-.73 8.1 8.1 0 0 1-.2-.91 7.51 7.51 0 0 1-.88.78 6.58 6.58 0 0 1-1.11.64 7.15 7.15 0 0 1-1.33.43 8.11 8.11 0 0 1-4.12-.24 6.08 6.08 0 0 1-2-1.12 5 5 0 0 1-1.3-1.7 5 5 0 0 1-.46-2.15 5.1 5.1 0 0 1 2.12-4.39q2.12-1.56 6.32-1.56h2.57v-1.06a2.62 2.62 0 0 0-.84-2.05 3.54 3.54 0 0 0-2.45-.76 2.93 2.93 0 0 0-2.06.61 2.1 2.1 0 0 0-.64 1.62H447a5 5 0 0 1 .5-2.18 5.4 5.4 0 0 1 1.48-1.81 7.54 7.54 0 0 1 2.38-1.24 10.5 10.5 0 0 1 3.21-.45 10.83 10.83 0 0 1 3 .4 7 7 0 0 1 2.44 1.18 5.5 5.5 0 0 1 1.61 2 6.18 6.18 0 0 1 .58 2.75v7.71a13.15 13.15 0 0 0 .18 2.39 5.78 5.78 0 0 0 .54 1.63v.28zm-4.4-3.24a4.8 4.8 0 0 0 1.29-.16 5.29 5.29 0 0 0 1.08-.43 3.79 3.79 0 0 0 .83-.61 3 3 0 0 0 .55-.69v-3.09h-2.36a7 7 0 0 0-1.84.21 3.62 3.62 0 0 0-1.25.58 2.28 2.28 0 0 0-.71.9 2.69 2.69 0 0 0-.23 1.13 2 2 0 0 0 .65 1.55 2.82 2.82 0 0 0 1.99.61zm21.23-2.09l.23 1.3.23-1.25 4-12.69h4.82l-6.83 18h-4.34l-6.86-18h4.82zm24 5.33a4.18 4.18 0 0 1-.28-.76c-.08-.29-.14-.59-.2-.91a6.78 6.78 0 0 1-.88.78 6.9 6.9 0 0 1-1.1.64 7.26 7.26 0 0 1-1.34.43 8.08 8.08 0 0 1-4.11-.24 6.13 6.13 0 0 1-2-1.12 5 5 0 0 1-1.76-3.85 5.13 5.13 0 0 1 2.12-4.39q2.11-1.56 6.32-1.56h2.58v-1.06a2.62 2.62 0 0 0-.85-2.05 3.53 3.53 0 0 0-2.44-.76 2.9 2.9 0 0 0-2.06.61 2.07 2.07 0 0 0-.65 1.62h-4.62a4.85 4.85 0 0 1 .51-2.18 5.28 5.28 0 0 1 1.48-1.81 7.38 7.38 0 0 1 2.37-1.24 10.57 10.57 0 0 1 3.22-.45 10.93 10.93 0 0 1 3 .4 7.06 7.06 0 0 1 2.43 1.18 5.39 5.39 0 0 1 1.61 2 6.18 6.18 0 0 1 .58 2.75v7.71a12.21 12.21 0 0 0 .19 2.39 6.12 6.12 0 0 0 .53 1.63v.28zm-4.4-3.24a4.87 4.87 0 0 0 1.3-.16 5.29 5.29 0 0 0 1.08-.43 4 4 0 0 0 .83-.61 3.69 3.69 0 0 0 .55-.69v-3.09h-2.36a7.09 7.09 0 0 0-1.85.21 3.49 3.49 0 0 0-1.24.58 2.4 2.4 0 0 0-.72.9 2.85 2.85 0 0 0-.23 1.13 2 2 0 0 0 .66 1.55 2.8 2.8 0 0 0 1.98.61zm25.98-3.07a3.25 3.25 0 0 0-.22-1.21 2.9 2.9 0 0 0-.77-1.06 5.8 5.8 0 0 0-1.41-.89 13.12 13.12 0 0 0-2.17-.76 21 21 0 0 1-3-1.08 10.79 10.79 0 0 1-2.53-1.56 7.32 7.32 0 0 1-1.76-2.13 6.31 6.31 0 0 1 0-5.56 6.57 6.57 0 0 1 1.8-2.13 8.2 8.2 0 0 1 2.71-1.35 11.48 11.48 0 0 1 3.39-.48 10.59 10.59 0 0 1 3.46.55 8.11 8.11 0 0 1 2.7 1.54 6.94 6.94 0 0 1 2.39 5.34h-4.55a4.82 4.82 0 0 0-.29-1.5 3.18 3.18 0 0 0-.77-1.17 3.42 3.42 0 0 0-1.26-.76 5.22 5.22 0 0 0-1.77-.28 5.53 5.53 0 0 0-1.65.23 3.61 3.61 0 0 0-1.22.63 2.7 2.7 0 0 0-.76 1 2.92 2.92 0 0 0-.26 1.21 2.29 2.29 0 0 0 .35 1.23 3.4 3.4 0 0 0 1 1 8.5 8.5 0 0 0 1.57.8 18.37 18.37 0 0 0 2.09.68 18.37 18.37 0 0 1 3.06 1.18 9.91 9.91 0 0 1 2.4 1.66 6.89 6.89 0 0 1 1.56 2.17 6.51 6.51 0 0 1 .55 2.72 6 6 0 0 1-2.4 4.92 8.07 8.07 0 0 1-2.7 1.3 13 13 0 0 1-5.69.23 10.64 10.64 0 0 1-2.17-.64 9.92 9.92 0 0 1-1.94-1.08 7.4 7.4 0 0 1-1.55-1.51 6.91 6.91 0 0 1-1-2 7.47 7.47 0 0 1-.37-2.43h4.58a4.94 4.94 0 0 0 .38 1.88 3.48 3.48 0 0 0 1 1.28 4 4 0 0 0 1.5.73 7.21 7.21 0 0 0 1.92.24 5.89 5.89 0 0 0 1.65-.22 3.76 3.76 0 0 0 1.22-.6 2.62 2.62 0 0 0 .77-.92 2.76 2.76 0 0 0 .16-1.2zm15.98 2.96a4.26 4.26 0 0 0 1.3-.2 3.28 3.28 0 0 0 1.08-.57 2.45 2.45 0 0 0 .72-.88 2.27 2.27 0 0 0 .23-1.14h4.35a5.32 5.32 0 0 1-.58 2.59 6.32 6.32 0 0 1-1.65 2.06 8 8 0 0 1-2.43 1.35 8.67 8.67 0 0 1-2.93.49 9 9 0 0 1-3.68-.7 7.36 7.36 0 0 1-2.63-1.94 8.41 8.41 0 0 1-1.59-2.88 11.38 11.38 0 0 1-.54-3.55v-.5a11.31 11.31 0 0 1 .53-3.54 8 8 0 0 1 1.59-2.88 7.64 7.64 0 0 1 2.64-2 8.79 8.79 0 0 1 3.64-.71 9 9 0 0 1 3.08.5 7.27 7.27 0 0 1 2.43 1.4 6.25 6.25 0 0 1 1.59 2.19 6.88 6.88 0 0 1 .53 2.88H540a3.15 3.15 0 0 0-.2-1.26 2.92 2.92 0 0 0-.69-1 3.18 3.18 0 0 0-1.07-.69 3.72 3.72 0 0 0-1.38-.26 3.33 3.33 0 0 0-1.81.45 3.28 3.28 0 0 0-1.14 1.2 5.58 5.58 0 0 0-.6 1.71 10.83 10.83 0 0 0-.18 2v.5a12.05 12.05 0 0 0 .17 2 5.16 5.16 0 0 0 .59 1.71 3.36 3.36 0 0 0 1.15 1.19 3.4 3.4 0 0 0 1.86.48zm25.37-14.95a11.8 11.8 0 0 1 1.94.14 9 9 0 0 1 1.43.31l-.68 4.6a14.32 14.32 0 0 0-1.87-.33 16.5 16.5 0 0 0-1.82-.1 5.71 5.71 0 0 0-3.11.74 4.51 4.51 0 0 0-1.75 2.15v10.79h-4.62v-18h4.3l.22 2.94a8.18 8.18 0 0 1 2.62-2.4 6.63 6.63 0 0 1 3.34-.84zm8.74.33h9.78V159h4.87v3.75h-14.65V159h5.11v-10.47h-5.11zm4.78-4.6a2.64 2.64 0 0 1 .19-1 2.18 2.18 0 0 1 .54-.78 2.46 2.46 0 0 1 .84-.51 3.16 3.16 0 0 1 1.09-.18 2.7 2.7 0 0 1 2 .69 2.54 2.54 0 0 1 0 3.54 2.7 2.7 0 0 1-2 .69 2.94 2.94 0 0 1-1.09-.19 2.6 2.6 0 0 1-.84-.5 2.37 2.37 0 0 1-.54-.78 2.72 2.72 0 0 1-.19-.98zm30.55 13.75a13.59 13.59 0 0 1-.46 3.64 8.71 8.71 0 0 1-1.34 2.9 6.54 6.54 0 0 1-2.2 1.92 6.4 6.4 0 0 1-3 .7 6.12 6.12 0 0 1-2.54-.5 5.73 5.73 0 0 1-1.91-1.4v8.47h-4.62v-24.88h4.27l.17 1.76a5.89 5.89 0 0 1 2-1.55 6 6 0 0 1 2.64-.54 6.74 6.74 0 0 1 3 .65 6.19 6.19 0 0 1 2.21 1.86 8.48 8.48 0 0 1 1.35 2.89 14.06 14.06 0 0 1 .46 3.73zm-4.62-.35a10.8 10.8 0 0 0-.2-2.11 5.65 5.65 0 0 0-.65-1.72 3.3 3.3 0 0 0-1.13-1.13 3.16 3.16 0 0 0-1.67-.42 3.83 3.83 0 0 0-2 .47 3.32 3.32 0 0 0-1.2 1.34v7.51a3.42 3.42 0 0 0 1.2 1.35 3.62 3.62 0 0 0 2 .51 3.05 3.05 0 0 0 1.67-.43 3.26 3.26 0 0 0 1.12-1.18 5.6 5.6 0 0 0 .63-1.74 10 10 0 0 0 .2-2.1zm17.36-13.2v4.4h6.71v3.4h-6.71v7.73a5.14 5.14 0 0 0 .23 1.64 2.52 2.52 0 0 0 .64 1 2.35 2.35 0 0 0 1 .56 5 5 0 0 0 1.32.17c.36 0 .72 0 1.09-.05l1.06-.13c.34-.05.66-.1.95-.16s.55-.11.76-.16l.45 3.17a5.91 5.91 0 0 1-1.13.49 11.59 11.59 0 0 1-1.38.34c-.49.09-1 .16-1.52.21s-1.05.07-1.56.07a8.67 8.67 0 0 1-2.68-.39 5.26 5.26 0 0 1-2.06-1.21 5.5 5.5 0 0 1-1.32-2.09 8.94 8.94 0 0 1-.46-3v-8.18h-4.11v-3.4h4.11v-4.4z"/></svg>