<svg xmlns="http://www.w3.org/2000/svg" viewBox="0 0 684 224"><path fill="none" stroke="#000" stroke-miterlimit="10" stroke-width="4" d="M2 2h680v220H2z"/><path d="M218.42 53.54A16.36 16.36 0 0 1 220 46.2a11.58 11.58 0 0 1 4.57-5 13.29 13.29 0 0 1 6.92-1.77 12.64 12.64 0 0 1 9.15 3.43 13.76 13.76 0 0 1 4 9.31v1.9q0 6.36-3.56 10.22a13.77 13.77 0 0 1-19.09 0q-3.57-3.84-3.57-10.44zm7.39.52a10.34 10.34 0 0 0 1.48 6 5.33 5.33 0 0 0 8.45 0c1-1.37 1.51-3.57 1.51-6.59a10.31 10.31 0 0 0-1.51-6 4.92 4.92 0 0 0-4.25-2.13 4.84 4.84 0 0 0-4.2 2.12q-1.48 2.18-1.48 6.6zm48.3-.01q0 6.41-2.9 10.25a9.33 9.33 0 0 1-7.84 3.85 8.6 8.6 0 0 1-6.78-2.92v13h-7.4V40h6.86l.26 2.72a8.68 8.68 0 0 1 7-3.23 9.35 9.35 0 0 1 7.95 3.79q2.85 3.78 2.84 10.44zm-7.39-.54a10.93 10.93 0 0 0-1.37-6 4.46 4.46 0 0 0-4-2.1q-3.48 0-4.78 2.67v11.37a4.92 4.92 0 0 0 4.83 2.74q5.31 0 5.32-8.68zm28.55 11.31a9.26 9.26 0 0 1-7.57 3.33q-4.45 0-6.79-2.56c-1.57-1.71-2.36-4.2-2.4-7.5V40h7.4v17.86c0 2.88 1.31 4.33 3.94 4.33s4.23-.87 5.17-2.62V40h7.41v27.64h-6.95zM323 60a2.37 2.37 0 0 0-1.34-2.14 15.22 15.22 0 0 0-4.31-1.39q-9.87-2.09-9.88-8.4a7.61 7.61 0 0 1 3.06-6.15 12.37 12.37 0 0 1 8-2.47 13.31 13.31 0 0 1 8.47 2.47 7.86 7.86 0 0 1 3.16 6.45h-7.4a3.57 3.57 0 0 0-1-2.62 4.34 4.34 0 0 0-3.2-1 4.39 4.39 0 0 0-2.89.85 2.67 2.67 0 0 0-1 2.15 2.27 2.27 0 0 0 1.16 2 12 12 0 0 0 3.93 1.3 32.47 32.47 0 0 1 4.65 1.24q5.87 2.16 5.86 7.45a7.22 7.22 0 0 1-3.25 6.13 14 14 0 0 1-8.39 2.34 14.76 14.76 0 0 1-6.18-1.24 10.29 10.29 0 0 1-4.23-3.41 7.91 7.91 0 0 1-1.54-4.66h7a3.85 3.85 0 0 0 1.46 3 5.81 5.81 0 0 0 3.64 1 5.43 5.43 0 0 0 3.21-.8A2.51 2.51 0 0 0 323 60zm26.94 0a2.37 2.37 0 0 0-1.34-2.14 15.22 15.22 0 0 0-4.31-1.39q-9.87-2.09-9.88-8.4a7.61 7.61 0 0 1 3.06-6.15 12.37 12.37 0 0 1 8-2.47 13.31 13.31 0 0 1 8.43 2.48 7.86 7.86 0 0 1 3.16 6.45h-7.4a3.57 3.57 0 0 0-1-2.62 4.34 4.34 0 0 0-3.2-1 4.39 4.39 0 0 0-2.89.85 2.67 2.67 0 0 0-1 2.15 2.27 2.27 0 0 0 1.16 2 12 12 0 0 0 3.93 1.3 32.47 32.47 0 0 1 4.65 1.24q5.87 2.16 5.86 7.45a7.22 7.22 0 0 1-3.25 6.13 14 14 0 0 1-8.39 2.34 14.76 14.76 0 0 1-6.18-1.24 10.29 10.29 0 0 1-4.23-3.41 7.91 7.91 0 0 1-1.54-4.66h7a3.85 3.85 0 0 0 1.46 3 5.81 5.81 0 0 0 3.64 1 5.43 5.43 0 0 0 3.21-.8 2.51 2.51 0 0 0 1.05-2.11zm23.46 2.19a4.85 4.85 0 0 0 3.33-1.13 3.94 3.94 0 0 0 1.33-3H385a9.47 9.47 0 0 1-1.53 5.15 10.28 10.28 0 0 1-4.13 3.64 13 13 0 0 1-5.8 1.29 12 12 0 0 1-9.36-3.78q-3.44-3.77-3.43-10.42v-.49q0-6.39 3.4-10.21a11.88 11.88 0 0 1 9.34-3.81 11.66 11.66 0 0 1 8.33 3 10.43 10.43 0 0 1 3.18 7.83h-6.93a5.07 5.07 0 0 0-1.33-3.51 4.94 4.94 0 0 0-7.28.54q-1.32 1.88-1.32 6.11v.77q0 4.28 1.31 6.15a4.52 4.52 0 0 0 3.95 1.87zm31.37-15.3a19.59 19.59 0 0 0-2.66-.21q-4.2 0-5.5 2.84v18.12h-7.39V40h7l.2 3.3a6.86 6.86 0 0 1 6.17-3.81 7.44 7.44 0 0 1 2.3.34zm3.51-14.1a3.65 3.65 0 0 1 1.11-2.74 4.81 4.81 0 0 1 6.05 0 3.92 3.92 0 0 1 0 5.5 4.73 4.73 0 0 1-6 0 3.6 3.6 0 0 1-1.16-2.76zm7.85 34.85h-7.42V40h7.42zm31.01-13.59q0 6.41-2.91 10.25a9.32 9.32 0 0 1-7.84 3.85 8.6 8.6 0 0 1-6.78-2.92v13h-7.39V40h6.85l.26 2.72a8.69 8.69 0 0 1 7-3.23 9.38 9.38 0 0 1 8 3.79q2.83 3.78 2.84 10.44zm-7.4-.54a10.84 10.84 0 0 0-1.37-6 4.44 4.44 0 0 0-4-2.1q-3.48 0-4.79 2.67v11.37a5 5 0 0 0 4.84 2.74q5.33 0 5.32-8.68zm20.83-20.36V40h4.73v5.43h-4.73v13.76a3.29 3.29 0 0 0 .59 2.2 2.92 2.92 0 0 0 2.25.67 11.66 11.66 0 0 0 2.17-.18v5.6a15 15 0 0 1-4.47.67q-7.78 0-7.93-7.86V45.38h-4.05V40h4.05v-6.8zM33.62 97.72h3.14v16.83a8.2 8.2 0 0 1-.64 3.09 7.52 7.52 0 0 1-1.65 2.43 7.68 7.68 0 0 1-2.47 1.6 8.26 8.26 0 0 1-3.1.57 8.62 8.62 0 0 1-3.08-.52 7 7 0 0 1-2.41-1.47 7 7 0 0 1-1.63-2.3 9.37 9.37 0 0 1-.77-3h3.12a5.68 5.68 0 0 0 .41 1.88 4.67 4.67 0 0 0 1 1.5 4.15 4.15 0 0 0 1.47 1 5.09 5.09 0 0 0 1.92.35 4.41 4.41 0 0 0 2-.41 4.24 4.24 0 0 0 1.47-1.1 4.83 4.83 0 0 0 .93-1.62 6.3 6.3 0 0 0 .36-2zm20.88 24.19a3.41 3.41 0 0 1-.29-.87c-.07-.35-.12-.72-.16-1.09a8.31 8.31 0 0 1-1 .88 7.7 7.7 0 0 1-1.26.73 8.47 8.47 0 0 1-1.47.5 7.35 7.35 0 0 1-1.66.18 7.51 7.51 0 0 1-2.58-.42 5.85 5.85 0 0 1-2-1.12 4.86 4.86 0 0 1-1.25-1.7 5.11 5.11 0 0 1-.44-2.11 5.5 5.5 0 0 1 .59-2.59 5.1 5.1 0 0 1 1.67-1.85 7.79 7.79 0 0 1 2.6-1.1 14.23 14.23 0 0 1 3.4-.37H54v-1.38a3.43 3.43 0 0 0-.3-1.46 3.17 3.17 0 0 0-.84-1.11 3.88 3.88 0 0 0-1.34-.7 5.78 5.78 0 0 0-1.77-.25 5.24 5.24 0 0 0-1.64.23 4.1 4.1 0 0 0-1.22.61 2.78 2.78 0 0 0-.77.91 2.34 2.34 0 0 0-.27 1.09h-3.09a4.36 4.36 0 0 1 .5-1.93 5.4 5.4 0 0 1 1.42-1.7 7.16 7.16 0 0 1 2.24-1.22 9 9 0 0 1 3-.47 10.72 10.72 0 0 1 2.84.37A6.49 6.49 0 0 1 55 105.1a5.47 5.47 0 0 1 1.53 1.9 6 6 0 0 1 .55 2.64V118a11.69 11.69 0 0 0 .16 1.9 8.35 8.35 0 0 0 .47 1.75v.27zm-5.43-2.35a5.69 5.69 0 0 0 1.68-.23 6.27 6.27 0 0 0 1.42-.61 5.7 5.7 0 0 0 1.1-.87 4.06 4.06 0 0 0 .73-1v-3.63h-2.85A9.05 9.05 0 0 0 47 114a2.65 2.65 0 0 0-1.5 2.51 3.28 3.28 0 0 0 .23 1.23 2.53 2.53 0 0 0 .67 1 3.18 3.18 0 0 0 1.13.64 4.78 4.78 0 0 0 1.54.18zm21.08-2.07l.28 1.11.3-1.11 5-13.56h3.15l-7.33 18h-2.31l-7.4-18H65zm25.18 4.42A3.41 3.41 0 0 1 95 121a9.53 9.53 0 0 1-.15-1.09 10 10 0 0 1-1 .88 7.8 7.8 0 0 1-1.27.73 8.19 8.19 0 0 1-1.47.5 7.35 7.35 0 0 1-1.66.18 7.51 7.51 0 0 1-2.58-.42 6 6 0 0 1-2-1.12 5 5 0 0 1-1.21-1.66 5.11 5.11 0 0 1-.44-2.11 5.5 5.5 0 0 1 .59-2.59 5.19 5.19 0 0 1 1.67-1.85 7.79 7.79 0 0 1 2.6-1.1 14.28 14.28 0 0 1 3.4-.37h3.36v-1.38a3.43 3.43 0 0 0-.3-1.46 3.2 3.2 0 0 0-.85-1.11 3.88 3.88 0 0 0-1.34-.7 5.69 5.69 0 0 0-1.77-.25 5.14 5.14 0 0 0-1.63.23 3.87 3.87 0 0 0-1.22.61 2.81 2.81 0 0 0-.78.91 2.34 2.34 0 0 0-.27 1.09h-3.09a4.25 4.25 0 0 1 .51-1.92 5.23 5.23 0 0 1 1.41-1.7 7.16 7.16 0 0 1 2.24-1.22 9 9 0 0 1 3-.47 10.72 10.72 0 0 1 2.84.37 6.62 6.62 0 0 1 2.27 1.13 5.57 5.57 0 0 1 1.5 1.89 5.9 5.9 0 0 1 .55 2.64V118a11.69 11.69 0 0 0 .16 1.9 9 9 0 0 0 .47 1.75v.27zm-5.43-2.35a5.69 5.69 0 0 0 1.68-.23 6.27 6.27 0 0 0 1.42-.61 5.41 5.41 0 0 0 1.1-.87 4.38 4.38 0 0 0 .74-1v-3.63H92a9.05 9.05 0 0 0-4.19.79 2.66 2.66 0 0 0-1.49 2.51 3.28 3.28 0 0 0 .22 1.23 2.53 2.53 0 0 0 .67 1 3.18 3.18 0 0 0 1.13.64 4.78 4.78 0 0 0 1.56.17zm26.7-3.77a3.29 3.29 0 0 0-.51-1.87 4.57 4.57 0 0 0-1.3-1.29 8.25 8.25 0 0 0-1.76-.87q-.94-.36-1.83-.63c-.85-.28-1.72-.61-2.6-1a11.36 11.36 0 0 1-2.41-1.43 7.06 7.06 0 0 1-1.78-2 5.21 5.21 0 0 1-.69-2.72 5.6 5.6 0 0 1 .69-2.79 6.54 6.54 0 0 1 1.81-2.07 7.91 7.91 0 0 1 2.52-1.29 9.61 9.61 0 0 1 2.84-.44 8.91 8.91 0 0 1 3 .52 8.46 8.46 0 0 1 2.59 1.47 7.1 7.1 0 0 1 1.81 2.29 6.78 6.78 0 0 1 .72 3h-3.16a6.88 6.88 0 0 0-.51-1.9 4.83 4.83 0 0 0-1-1.47 4.49 4.49 0 0 0-1.5-1 5.53 5.53 0 0 0-2-.34 6.22 6.22 0 0 0-1.72.25 4.64 4.64 0 0 0-1.49.75 3.67 3.67 0 0 0-1.05 1.23 3.54 3.54 0 0 0-.39 1.69 3.07 3.07 0 0 0 .53 1.77 4.6 4.6 0 0 0 1.3 1.22 8.29 8.29 0 0 0 1.72.83c.61.23 1.19.42 1.73.59s1.2.4 1.81.63a14.93 14.93 0 0 1 1.76.83 11.66 11.66 0 0 1 1.58 1 7 7 0 0 1 1.28 1.32 5.76 5.76 0 0 1 1.16 3.6 5.45 5.45 0 0 1-.72 2.84 6.45 6.45 0 0 1-1.87 2 8.33 8.33 0 0 1-2.59 1.21 10.67 10.67 0 0 1-2.89.41 10.33 10.33 0 0 1-3.16-.5 8.85 8.85 0 0 1-2.76-1.44 7.42 7.42 0 0 1-2-2.29 6.5 6.5 0 0 1-.81-3.08h3.14a5.86 5.86 0 0 0 .61 2 4.83 4.83 0 0 0 1.2 1.48 5 5 0 0 0 1.69.91 6.58 6.58 0 0 0 2.08.31 7 7 0 0 0 1.77-.22 4.66 4.66 0 0 0 1.55-.7 3.78 3.78 0 0 0 1.12-1.2 3.35 3.35 0 0 0 .49-1.61zm15.4 3.96a4.92 4.92 0 0 0 1.62-.27 4.52 4.52 0 0 0 1.41-.74 3.74 3.74 0 0 0 1-1.11 2.94 2.94 0 0 0 .39-1.39h2.9a4.83 4.83 0 0 1-.62 2.29 6.52 6.52 0 0 1-1.62 1.91 8.13 8.13 0 0 1-2.33 1.31 7.64 7.64 0 0 1-2.74.49 8.16 8.16 0 0 1-3.57-.73 7.35 7.35 0 0 1-2.55-2 8.38 8.38 0 0 1-1.53-2.86 11 11 0 0 1-.52-3.41v-.7a11 11 0 0 1 .52-3.4 8.43 8.43 0 0 1 1.53-2.87 7.47 7.47 0 0 1 2.55-2 8.93 8.93 0 0 1 6.51-.22 7.39 7.39 0 0 1 2.31 1.38 6.45 6.45 0 0 1 1.52 2.06 6.16 6.16 0 0 1 .54 2.56h-2.9a3.66 3.66 0 0 0-.36-1.53 4.2 4.2 0 0 0-2.31-2.14 4.76 4.76 0 0 0-1.74-.31 4.69 4.69 0 0 0-2.4.57 4.77 4.77 0 0 0-1.57 1.49 6.32 6.32 0 0 0-.85 2.07 10.69 10.69 0 0 0-.26 2.31v.7a10.74 10.74 0 0 0 .26 2.33 6.29 6.29 0 0 0 .85 2.08 4.4 4.4 0 0 0 4 2.07zm24.55-16.15h.9a8.41 8.41 0 0 1 .89.08 7.82 7.82 0 0 1 .78.14c.23.06.43.12.59.18l-.42 3a16.82 16.82 0 0 0-1.7-.29 15.26 15.26 0 0 0-1.69-.09 5.71 5.71 0 0 0-3.49 1 5.56 5.56 0 0 0-2 2.74v11.53h-3.09v-18h2.92l.15 2.86a8.34 8.34 0 0 1 2.63-2.33 7.09 7.09 0 0 1 3.53-.82zm9.12.33h9.19v15.32h5.86v2.66h-15.05v-2.66h6.11v-12.64h-6.11zm5.71-4.71a1.92 1.92 0 0 1 .46-1.29 2.07 2.07 0 0 1 2.77 0 1.87 1.87 0 0 1 .46 1.29 1.75 1.75 0 0 1-.46 1.24 1.85 1.85 0 0 1-3.23-1.24zm29.39 13.9a13.45 13.45 0 0 1-.46 3.6 8.79 8.79 0 0 1-1.37 2.89 6.22 6.22 0 0 1-5.23 2.63 7.46 7.46 0 0 1-2.9-.53 6.21 6.21 0 0 1-2.15-1.53v8.64h-3.07v-24.89h2.81l.15 2a5.94 5.94 0 0 1 2.16-1.7 7 7 0 0 1 2.95-.59 6.69 6.69 0 0 1 3.06.68 6.35 6.35 0 0 1 2.22 1.9 8.61 8.61 0 0 1 1.37 2.89 13.94 13.94 0 0 1 .46 3.7zm-3.07-.35a10.7 10.7 0 0 0-.29-2.5 6.71 6.71 0 0 0-.9-2.09 4.51 4.51 0 0 0-1.54-1.44 4.45 4.45 0 0 0-2.22-.53 4.3 4.3 0 0 0-2.49.69 5.14 5.14 0 0 0-1.6 1.77v8.65a5 5 0 0 0 1.6 1.74 4.94 4.94 0 0 0 4.73.13 4.51 4.51 0 0 0 1.53-1.45 6.81 6.81 0 0 0 .89-2.11 10.85 10.85 0 0 0 .29-2.51zm15.6-13.19v4.35h6.84v2.38h-6.84v9.77a4.94 4.94 0 0 0 .26 1.72 2.72 2.72 0 0 0 .73 1.09 2.82 2.82 0 0 0 1.08.58 4.83 4.83 0 0 0 1.28.16 9 9 0 0 0 1-.06c.36 0 .7-.08 1-.14s.65-.11.95-.17l.72-.16.43 2.18a4.06 4.06 0 0 1-.93.4 9 9 0 0 1-1.19.3 11.6 11.6 0 0 1-1.37.19 14.16 14.16 0 0 1-1.44.07 7.1 7.1 0 0 1-2.24-.34 4.71 4.71 0 0 1-1.8-1.08 5 5 0 0 1-1.2-1.91 7.94 7.94 0 0 1-.44-2.83v-9.77h-4.72v-2.38h4.72v-4.35zm48.79 13.54a13.44 13.44 0 0 1-.47 3.6 8.78 8.78 0 0 1-1.36 2.89 6.42 6.42 0 0 1-2.22 1.93 6.33 6.33 0 0 1-3 .7 7 7 0 0 1-3-.61 6.06 6.06 0 0 1-2.17-1.77l-.14 2h-2.83V96.39h3.07v9.47a6 6 0 0 1 2.13-1.68 6.78 6.78 0 0 1 2.91-.58 6.62 6.62 0 0 1 3 .68 6.38 6.38 0 0 1 2.23 1.9 8.59 8.59 0 0 1 1.36 2.89 13.93 13.93 0 0 1 .47 3.7zm-3.08-.35a11.91 11.91 0 0 0-.25-2.5 6.62 6.62 0 0 0-.83-2.09 4.22 4.22 0 0 0-1.47-1.44 4.46 4.46 0 0 0-2.25-.53 4.81 4.81 0 0 0-1.46.21 4.25 4.25 0 0 0-1.19.58 4.84 4.84 0 0 0-.93.88 5.66 5.66 0 0 0-.69 1.1v7.86a6.36 6.36 0 0 0 .71 1.11 4.63 4.63 0 0 0 .94.88 3.79 3.79 0 0 0 1.19.59 4.93 4.93 0 0 0 1.47.21 4.09 4.09 0 0 0 3.64-1.94 6.36 6.36 0 0 0 .85-2.08 11.11 11.11 0 0 0 .27-2.49zm8.74-8.84h9.19v15.32h5.86v2.66h-15.05v-2.66h6.11v-12.64h-6.11zm5.72-4.71a1.91 1.91 0 0 1 .45-1.29 2.07 2.07 0 0 1 2.77 0 1.87 1.87 0 0 1 .46 1.29 1.75 1.75 0 0 1-.46 1.24 2.17 2.17 0 0 1-2.77 0 1.79 1.79 0 0 1-.45-1.24zm16.97 4.71l.22 2.66a7.06 7.06 0 0 1 2.41-2.18 6.54 6.54 0 0 1 3.19-.81 7.64 7.64 0 0 1 2.56.4 4.89 4.89 0 0 1 2 1.25 5.62 5.62 0 0 1 1.26 2.15 9.79 9.79 0 0 1 .44 3.09v11.42h-3.08v-11.35a6.68 6.68 0 0 0-.26-2 3 3 0 0 0-2.07-2.09 6.06 6.06 0 0 0-1.74-.23 4.84 4.84 0 0 0-2.71.77 5.73 5.73 0 0 0-1.87 2v12.89h-3.07v-18zm17.08 8.84a12.78 12.78 0 0 1 .51-3.7 8.9 8.9 0 0 1 1.44-2.89 6.89 6.89 0 0 1 2.27-1.9 6.49 6.49 0 0 1 3-.68 6.82 6.82 0 0 1 2.82.54 5.91 5.91 0 0 1 2.09 1.57v-9.32h3.07v25.52h-2.83l-.13-1.9a6 6 0 0 1-2.14 1.67 7.09 7.09 0 0 1-2.91.56 6.18 6.18 0 0 1-2.95-.7 6.7 6.7 0 0 1-2.25-1.93 9.1 9.1 0 0 1-1.44-2.89 12 12 0 0 1-.52-3.6zm3.07.35a10.55 10.55 0 0 0 .29 2.49 6.61 6.61 0 0 0 .87 2.08 4.16 4.16 0 0 0 3.7 1.94 5.13 5.13 0 0 0 1.41-.18 4.16 4.16 0 0 0 2.06-1.34 6 6 0 0 0 .7-1v-8.34a5.31 5.31 0 0 0-1.62-1.81 4.28 4.28 0 0 0-2.52-.7 4.19 4.19 0 0 0-3.73 2 6.67 6.67 0 0 0-.87 2.09 10.7 10.7 0 0 0-.29 2.5zm18.41-9.19h9.19v15.32h5.86v2.66H329v-2.66h6.11v-12.64H329zm5.72-4.71a1.91 1.91 0 0 1 .45-1.29 2.07 2.07 0 0 1 2.77 0 1.87 1.87 0 0 1 .46 1.29 1.75 1.75 0 0 1-.46 1.24 2.17 2.17 0 0 1-2.77 0 1.79 1.79 0 0 1-.45-1.24zm16.97 4.71l.22 2.66a7.06 7.06 0 0 1 2.41-2.18 6.54 6.54 0 0 1 3.19-.81 7.68 7.68 0 0 1 2.56.4 4.89 4.89 0 0 1 2 1.25 5.75 5.75 0 0 1 1.26 2.15 9.79 9.79 0 0 1 .44 3.09v11.42h-3.08v-11.35a7 7 0 0 0-.26-2 3 3 0 0 0-2.07-2.09 6.11 6.11 0 0 0-1.74-.23 4.84 4.84 0 0 0-2.71.77 5.73 5.73 0 0 0-1.87 2v12.89h-3.07v-18zm17.1 8.84a13.14 13.14 0 0 1 .49-3.7 8.49 8.49 0 0 1 1.42-2.89 6.66 6.66 0 0 1 2.26-1.9 6.53 6.53 0 0 1 3-.68 6.86 6.86 0 0 1 2.92.59 5.76 5.76 0 0 1 2.13 1.7l.15-2H384v17.6a8.39 8.39 0 0 1-.55 3.15 6.58 6.58 0 0 1-1.56 2.34 6.67 6.67 0 0 1-2.4 1.47 9.19 9.19 0 0 1-3.09.49 9.82 9.82 0 0 1-1.6-.15 10 10 0 0 1-1.82-.52 8.44 8.44 0 0 1-1.77-1 5.78 5.78 0 0 1-1.48-1.48l1.6-1.85a7.94 7.94 0 0 0 1.16 1.16 5.66 5.66 0 0 0 1.22.75 5.16 5.16 0 0 0 1.22.41 6.42 6.42 0 0 0 1.23.13 5.87 5.87 0 0 0 2-.32 4.08 4.08 0 0 0 1.5-.92 4 4 0 0 0 1-1.51 5.88 5.88 0 0 0 .33-2v-1.55a5.93 5.93 0 0 1-2.12 1.57 6.94 6.94 0 0 1-2.83.54 6.2 6.2 0 0 1-3-.7 6.52 6.52 0 0 1-2.25-1.93 8.87 8.87 0 0 1-1.42-2.89 12.33 12.33 0 0 1-.5-3.6zm3.07.35a11.11 11.11 0 0 0 .27 2.49 6.61 6.61 0 0 0 .87 2.08 4.16 4.16 0 0 0 3.7 1.94 4.9 4.9 0 0 0 1.43-.19 4.09 4.09 0 0 0 2.05-1.37 5.9 5.9 0 0 0 .7-1.06v-8.24a5.33 5.33 0 0 0-.7-1 4.4 4.4 0 0 0-.91-.81 4.32 4.32 0 0 0-1.15-.53 4.67 4.67 0 0 0-1.39-.19 4.19 4.19 0 0 0-3.73 2 6.67 6.67 0 0 0-.87 2.09 11.27 11.27 0 0 0-.27 2.5zm29.85 4.02a2 2 0 0 0-.94-1.79 5.82 5.82 0 0 0-1.37-.68 14.07 14.07 0 0 0-2.11-.55 20.64 20.64 0 0 1-2.81-.77 9.23 9.23 0 0 1-2.18-1.07 4.62 4.62 0 0 1-1.4-1.46 3.77 3.77 0 0 1-.5-1.95 4.27 4.27 0 0 1 .51-2.05 5.23 5.23 0 0 1 1.45-1.67 7 7 0 0 1 2.22-1.13 9.08 9.08 0 0 1 2.83-.42 9.6 9.6 0 0 1 3 .43 6.85 6.85 0 0 1 2.26 1.2 5.44 5.44 0 0 1 1.43 1.77 5 5 0 0 1 .5 2.21h-3.07a2.37 2.37 0 0 0-.3-1.14 3.37 3.37 0 0 0-.83-1 4.17 4.17 0 0 0-1.29-.7 5 5 0 0 0-1.7-.26 6.33 6.33 0 0 0-1.72.21 4.13 4.13 0 0 0-1.23.58 2.57 2.57 0 0 0-.74.85 2.21 2.21 0 0 0-.25 1 2.16 2.16 0 0 0 .2.94 2 2 0 0 0 .69.75 5.57 5.57 0 0 0 1.31.6 17.35 17.35 0 0 0 2.09.51 26.05 26.05 0 0 1 3 .81 8.76 8.76 0 0 1 2.21 1.1 4.46 4.46 0 0 1 1.37 1.48 3.93 3.93 0 0 1 .48 2 4.43 4.43 0 0 1-.54 2.18 5.24 5.24 0 0 1-1.51 1.68 7.48 7.48 0 0 1-2.31 1.08 10.85 10.85 0 0 1-2.94.38 9.87 9.87 0 0 1-3.25-.49 7.74 7.74 0 0 1-2.42-1.3 5.56 5.56 0 0 1-1.51-1.86 5 5 0 0 1-.53-2.21h3.08a3.15 3.15 0 0 0 .5 1.59 3.67 3.67 0 0 0 1.1 1 4.7 4.7 0 0 0 1.45.56 7.87 7.87 0 0 0 1.58.17 5.71 5.71 0 0 0 3.08-.72 2.18 2.18 0 0 0 1.11-1.86zm33.48 4.77v-15.6h-4.95v-2.38h4.95v-1.26a8.51 8.51 0 0 1 .5-3 5.75 5.75 0 0 1 3.65-3.51 8.76 8.76 0 0 1 2.89-.45 12.41 12.41 0 0 1 2.13.18c.7.12 1.41.28 2.14.46l-.37 2.55a11.6 11.6 0 0 0-1.58-.41 10 10 0 0 0-1.94-.17 3.84 3.84 0 0 0-4.33 4.38v1.26h6.92v2.38h-6.92v15.6zm14.98-9.16a11.11 11.11 0 0 1 .57-3.61 8.47 8.47 0 0 1 1.62-2.9 7.44 7.44 0 0 1 2.56-1.93 8 8 0 0 1 3.41-.71 8.09 8.09 0 0 1 3.43.71 7.48 7.48 0 0 1 2.57 1.93 8.47 8.47 0 0 1 1.62 2.9 11.11 11.11 0 0 1 .57 3.61v.37a11 11 0 0 1-.57 3.6 8.33 8.33 0 0 1-1.62 2.89 7.41 7.41 0 0 1-2.56 1.93 8.7 8.7 0 0 1-6.84 0 7.35 7.35 0 0 1-2.57-1.93 8.33 8.33 0 0 1-1.62-2.89 11 11 0 0 1-.57-3.6zm3.07.37a9.91 9.91 0 0 0 .32 2.53 6.43 6.43 0 0 0 1 2.12 4.73 4.73 0 0 0 1.6 1.45 4.61 4.61 0 0 0 2.24.53 4.55 4.55 0 0 0 2.22-.53 4.7 4.7 0 0 0 1.59-1.45 6.43 6.43 0 0 0 1-2.12 9.91 9.91 0 0 0 .31-2.53v-.37a9.44 9.44 0 0 0-.32-2.51 6.86 6.86 0 0 0-1-2.12 4.82 4.82 0 0 0-1.6-1.45 4.46 4.46 0 0 0-2.23-.54 4.41 4.41 0 0 0-2.23.54 4.76 4.76 0 0 0-1.58 1.45 6.43 6.43 0 0 0-1 2.12 9.87 9.87 0 0 0-.32 2.51zm29.99-9.52h.9a8 8 0 0 1 .88.08 7.54 7.54 0 0 1 .79.14c.23.06.43.12.59.18l-.42 3c-.6-.13-1.17-.23-1.7-.29a15.26 15.26 0 0 0-1.69-.09 5.76 5.76 0 0 0-3.5 1 5.6 5.6 0 0 0-2 2.74v11.53H474v-18h3l.15 2.86a8.34 8.34 0 0 1 2.63-2.33 7.09 7.09 0 0 1 3.45-.82zm29.47-7.21h10v21.76h5.15v3.76H512.7v-3.76h5.38v-18h-5.38zm20.68 7.54h9.79v14.22H548v3.76h-14.62v-3.76h5.12V107.7h-5.12zm4.78-4.6a2.54 2.54 0 0 1 .2-1 2.11 2.11 0 0 1 .54-.78 2.5 2.5 0 0 1 .84-.5 2.85 2.85 0 0 1 1.08-.19 2.74 2.74 0 0 1 2 .69 2.54 2.54 0 0 1 0 3.54 2.74 2.74 0 0 1-2 .69 3.06 3.06 0 0 1-1.08-.18 2.37 2.37 0 0 1-.84-.51 2.11 2.11 0 0 1-.54-.78 2.47 2.47 0 0 1-.2-.98zm30.6 13.77a14.25 14.25 0 0 1-.44 3.69 8.44 8.44 0 0 1-1.32 2.89 6 6 0 0 1-2.19 1.89 6.57 6.57 0 0 1-3.06.67 6 6 0 0 1-2.73-.59 5.8 5.8 0 0 1-2-1.65l-.22 1.91h-4.15V96.39h4.62v9.17a5.6 5.6 0 0 1 1.88-1.44 5.84 5.84 0 0 1 2.55-.52 6.69 6.69 0 0 1 3.08.68 6.2 6.2 0 0 1 2.2 1.9 8.35 8.35 0 0 1 1.32 2.89 14.34 14.34 0 0 1 .44 3.68zm-4.61-.35a12.39 12.39 0 0 0-.17-2.07 5.36 5.36 0 0 0-.57-1.72 3.12 3.12 0 0 0-1.11-1.17 3.21 3.21 0 0 0-1.74-.43 3.55 3.55 0 0 0-2 .53 3.37 3.37 0 0 0-1.22 1.46v7.16a3.37 3.37 0 0 0 1.22 1.46 3.68 3.68 0 0 0 2.08.53 3.36 3.36 0 0 0 1.73-.4 3.11 3.11 0 0 0 1.09-1.13 5.36 5.36 0 0 0 .57-1.72 12.93 12.93 0 0 0 .17-2.15zm8.2 0a11.23 11.23 0 0 1 .57-3.63 8.33 8.33 0 0 1 1.65-2.89 7.6 7.6 0 0 1 2.66-1.93 9.61 9.61 0 0 1 7.2 0 7.64 7.64 0 0 1 2.67 1.93 8.49 8.49 0 0 1 1.65 2.89 11.23 11.23 0 0 1 .56 3.63v.35a11.22 11.22 0 0 1-.56 3.65 8.68 8.68 0 0 1-1.64 2.9 7.58 7.58 0 0 1-2.66 1.92 9.74 9.74 0 0 1-7.2 0 7.56 7.56 0 0 1-2.68-1.92 8.37 8.37 0 0 1-1.65-2.9 11.22 11.22 0 0 1-.57-3.65zm4.62.35a9.51 9.51 0 0 0 .22 2.12 5.26 5.26 0 0 0 .68 1.73 3.53 3.53 0 0 0 1.2 1.17 3.49 3.49 0 0 0 1.79.43 3.33 3.33 0 0 0 1.74-.43 3.42 3.42 0 0 0 1.19-1.17 5.25 5.25 0 0 0 .67-1.73 9.51 9.51 0 0 0 .22-2.12v-.35a9.19 9.19 0 0 0-.22-2.07 5.34 5.34 0 0 0-.67-1.73 3.62 3.62 0 0 0-4.72-1.18 3.47 3.47 0 0 0-1.2 1.18 5.35 5.35 0 0 0-.68 1.73 9.19 9.19 0 0 0-.22 2.07zm32.58-.01a13.52 13.52 0 0 1-.46 3.63 8.53 8.53 0 0 1-1.35 2.9 6.21 6.21 0 0 1-5.2 2.62 6.09 6.09 0 0 1-2.54-.5 5.73 5.73 0 0 1-1.91-1.39v8.47h-4.62v-24.89h4.27l.16 1.76a5.68 5.68 0 0 1 4.6-2.09 6.69 6.69 0 0 1 3 .66 6.07 6.07 0 0 1 2.21 1.86 8.49 8.49 0 0 1 1.35 2.89 14 14 0 0 1 .46 3.73zm-4.62-.35a10.16 10.16 0 0 0-.21-2.12 5.25 5.25 0 0 0-.65-1.71 3.33 3.33 0 0 0-1.13-1.14 3.1 3.1 0 0 0-1.66-.41 3.71 3.71 0 0 0-2 .47 3.13 3.13 0 0 0-1.2 1.34v7.51a3.48 3.48 0 0 0 1.2 1.35 3.6 3.6 0 0 0 2 .51 3.08 3.08 0 0 0 1.67-.44 3.26 3.26 0 0 0 1.12-1.18 5.45 5.45 0 0 0 .63-1.73 10.85 10.85 0 0 0 .2-2.1zm20.35 6.64a6.9 6.9 0 0 1-2.2 2.11 5.43 5.43 0 0 1-2.82.77 7.28 7.28 0 0 1-2.56-.44 4.85 4.85 0 0 1-2-1.37 6.57 6.57 0 0 1-1.29-2.39 11.91 11.91 0 0 1-.45-3.5v-10.63h4.62v10.67a9.54 9.54 0 0 0 .15 1.84 3.14 3.14 0 0 0 .51 1.21 1.94 1.94 0 0 0 .91.65 4 4 0 0 0 1.38.2 4.25 4.25 0 0 0 2.24-.52 3.4 3.4 0 0 0 1.32-1.44v-12.61h4.63v18h-4.18zm20.55-2.38a1.37 1.37 0 0 0-.19-.73 1.94 1.94 0 0 0-.68-.59 6.11 6.11 0 0 0-1.31-.5c-.54-.16-1.23-.31-2.06-.47a19.35 19.35 0 0 1-2.88-.79 9.13 9.13 0 0 1-2.23-1.14 5.25 5.25 0 0 1-1.46-1.56 3.85 3.85 0 0 1-.52-2 4.57 4.57 0 0 1 .5-2.22 5.49 5.49 0 0 1 1.53-1.78 7.68 7.68 0 0 1 2.43-1.21 10.66 10.66 0 0 1 3.22-.45 12.07 12.07 0 0 1 3.37.44 7.93 7.93 0 0 1 2.53 1.21 5.34 5.34 0 0 1 1.59 1.84 4.92 4.92 0 0 1 .55 2.31h-4.62a2.17 2.17 0 0 0-.85-1.75 3.94 3.94 0 0 0-2.57-.71 4.21 4.21 0 0 0-2.44.58A1.74 1.74 0 0 0 639 109a1.68 1.68 0 0 0 .17.74 1.48 1.48 0 0 0 .59.61 4.33 4.33 0 0 0 1.15.5 12.91 12.91 0 0 0 1.86.39 26.16 26.16 0 0 1 3 .68 9.39 9.39 0 0 1 2.41 1.08 4.89 4.89 0 0 1 1.58 1.59 4.23 4.23 0 0 1 .57 2.23 4.41 4.41 0 0 1-.57 2.21 5.24 5.24 0 0 1-1.63 1.73 8.09 8.09 0 0 1-2.55 1.14 12.73 12.73 0 0 1-3.34.41 10.91 10.91 0 0 1-3.58-.54 8.32 8.32 0 0 1-2.6-1.38 5.94 5.94 0 0 1-1.58-2 4.84 4.84 0 0 1-.54-2.18h4.4a2.5 2.5 0 0 0 .4 1.25 2.62 2.62 0 0 0 .9.85 4 4 0 0 0 1.25.47 7 7 0 0 0 1.45.15 5.13 5.13 0 0 0 2.61-.54 1.63 1.63 0 0 0 .88-1.39zm17.17 4.19a7.38 7.38 0 0 1-.19 1.64 9.09 9.09 0 0 1-.57 1.69 10.17 10.17 0 0 1-.9 1.61 7.6 7.6 0 0 1-1.23 1.36l-1.91-1a7.66 7.66 0 0 0 1.13-2.47 11.21 11.21 0 0 0 .33-2.73v-3H663zM139.53 154a13.32 13.32 0 0 1-.46 3.59 8.85 8.85 0 0 1-1.37 2.9 6.22 6.22 0 0 1-5.23 2.63 7.28 7.28 0 0 1-2.9-.54 6.06 6.06 0 0 1-2.15-1.52v8.63h-3.07v-24.93h2.8l.15 2a6 6 0 0 1 2.17-1.7 6.85 6.85 0 0 1 2.95-.59 6.57 6.57 0 0 1 3.06.68 6.22 6.22 0 0 1 2.22 1.85 8.75 8.75 0 0 1 1.37 2.9 13.89 13.89 0 0 1 .46 3.7zm-3.07-.35a10.64 10.64 0 0 0-.29-2.5 6.87 6.87 0 0 0-.9-2.1 4.48 4.48 0 0 0-1.54-1.43 4.34 4.34 0 0 0-2.22-.53 4.29 4.29 0 0 0-2.49.68 5.14 5.14 0 0 0-1.6 1.77v8.66a5 5 0 0 0 1.6 1.74 4.46 4.46 0 0 0 2.52.67 4.33 4.33 0 0 0 2.21-.54 4.54 4.54 0 0 0 1.53-1.46 6.71 6.71 0 0 0 .89-2.11 10.7 10.7 0 0 0 .29-2.5zm7.46-.07a11.06 11.06 0 0 1 .56-3.61 8.72 8.72 0 0 1 1.62-2.9 7.5 7.5 0 0 1 2.57-1.94 8.68 8.68 0 0 1 6.83 0 7.45 7.45 0 0 1 2.58 1.94 8.72 8.72 0 0 1 1.62 2.9 11.34 11.34 0 0 1 .56 3.61v.42a11.32 11.32 0 0 1-.56 3.6 8.77 8.77 0 0 1-1.62 2.89 7.48 7.48 0 0 1-2.57 1.93 8.68 8.68 0 0 1-6.83 0 7.42 7.42 0 0 1-2.58-1.93 8.77 8.77 0 0 1-1.62-2.89 11 11 0 0 1-.56-3.6zm3.08.42a9.54 9.54 0 0 0 .32 2.53 6.51 6.51 0 0 0 .95 2.12 4.69 4.69 0 0 0 1.6 1.44 4.54 4.54 0 0 0 2.25.53 4.38 4.38 0 0 0 2.21-.53 4.69 4.69 0 0 0 1.6-1.44 6.72 6.72 0 0 0 1-2.12 10 10 0 0 0 .32-2.53v-.37a10 10 0 0 0-.32-2.52 6.7 6.7 0 0 0-1-2.11 4.82 4.82 0 0 0-1.59-1.46 4.48 4.48 0 0 0-2.24-.54 4.4 4.4 0 0 0-2.22.54 4.92 4.92 0 0 0-1.59 1.46 6.45 6.45 0 0 0-.95 2.11 9.57 9.57 0 0 0-.32 2.52zm30-9.57h.9c.31 0 .61.05.89.09a5.72 5.72 0 0 1 .78.14 2.78 2.78 0 0 1 .59.18l-.41 3a14.56 14.56 0 0 0-1.71-.29 13 13 0 0 0-1.68-.1 5.8 5.8 0 0 0-3.5 1 5.71 5.71 0 0 0-2 2.74v11.53h-3.09v-18h2.93l.14 2.86a8.28 8.28 0 0 1 2.64-2.34 7 7 0 0 1 3.52-.81zm15.89-4.02v4.35h6.84v2.38h-6.84v9.76a4.72 4.72 0 0 0 .27 1.73 2.69 2.69 0 0 0 .73 1.09 2.64 2.64 0 0 0 1.07.57 4.83 4.83 0 0 0 1.28.17 9 9 0 0 0 1-.06l1-.14.95-.18.72-.15.43 2.17a4 4 0 0 1-.93.41 10.86 10.86 0 0 1-1.19.3 13.72 13.72 0 0 1-1.37.19c-.48 0-1 .07-1.44.07a7 7 0 0 1-2.23-.35 4.54 4.54 0 0 1-1.81-1.07 5.11 5.11 0 0 1-1.2-1.91 8.23 8.23 0 0 1-.44-2.84v-9.76h-4.72v-2.38h4.72v-4.35zM214 163.07a9.17 9.17 0 0 1-3.48-.65 8 8 0 0 1-2.72-1.81 8.41 8.41 0 0 1-1.76-2.76 9.35 9.35 0 0 1-.63-3.47v-.7a10.23 10.23 0 0 1 .7-3.9 8.85 8.85 0 0 1 1.85-2.9 8.13 8.13 0 0 1 2.63-1.82 7.56 7.56 0 0 1 3-.63 8 8 0 0 1 3.4.67 6.77 6.77 0 0 1 2.42 1.86 7.9 7.9 0 0 1 1.43 2.8 12.17 12.17 0 0 1 .48 3.49v1.38h-12.87a7.31 7.31 0 0 0 .48 2.31 6 6 0 0 0 1.16 1.88 5.27 5.27 0 0 0 1.77 1.27 5.5 5.5 0 0 0 2.28.47 6.16 6.16 0 0 0 2.92-.67 6.41 6.41 0 0 0 2.13-1.76l1.87 1.46a7.09 7.09 0 0 1-1.12 1.31 7.82 7.82 0 0 1-1.55 1.1 9.17 9.17 0 0 1-2 .78 9.87 9.87 0 0 1-2.39.29zm-.4-16.12a4.71 4.71 0 0 0-1.76.34 4.6 4.6 0 0 0-1.49 1 5.66 5.66 0 0 0-1.13 1.61 8.11 8.11 0 0 0-.64 2.2h9.67v-.23a6.51 6.51 0 0 0-.34-1.78 5.13 5.13 0 0 0-.85-1.58 4.41 4.41 0 0 0-1.42-1.13 4.58 4.58 0 0 0-2.07-.38zm12.26 6.65a12.73 12.73 0 0 1 .51-3.7 8.87 8.87 0 0 1 1.45-2.9 6.61 6.61 0 0 1 2.26-1.89 6.38 6.38 0 0 1 3-.68 6.81 6.81 0 0 1 2.81.54 5.83 5.83 0 0 1 2.09 1.57v-9.32H241v25.51h-2.82l-.14-1.89a5.85 5.85 0 0 1-2.14 1.66 6.93 6.93 0 0 1-2.91.57 6.26 6.26 0 0 1-2.94-.7 7 7 0 0 1-2.26-1.93 9.16 9.16 0 0 1-1.44-2.9 12.22 12.22 0 0 1-.52-3.59zm3.08.35a10.62 10.62 0 0 0 .28 2.49 6.56 6.56 0 0 0 .87 2.07 4.36 4.36 0 0 0 1.51 1.42 4.3 4.3 0 0 0 2.19.53 4.76 4.76 0 0 0 1.41-.19 4.14 4.14 0 0 0 1.15-.52 4.67 4.67 0 0 0 .91-.81 5.56 5.56 0 0 0 .7-1.06v-8.34a5.26 5.26 0 0 0-1.61-1.8 4.92 4.92 0 0 0-4.75-.17 4.48 4.48 0 0 0-1.51 1.43 6.83 6.83 0 0 0-.87 2.1 10.64 10.64 0 0 0-.28 2.5zm41.06 2.27l.37 2.58.45-2.58 2.87-11.46h2l2.86 11.46.48 2.83.45-2.83 2-11.46h2.72l-3.82 18h-2.42l-2.81-11-.47-2.79-.44 2.79-2.78 11H269l-3.82-18h2.72zm18.18-11.46h9.18v15.32h5.87v2.65h-15.05v-2.65h6.11v-12.65h-6.11zm5.71-4.72a1.87 1.87 0 0 1 .46-1.29 2.09 2.09 0 0 1 2.76 0 1.88 1.88 0 0 1 .47 1.29 1.76 1.76 0 0 1-.47 1.25 2.15 2.15 0 0 1-2.76 0 1.76 1.76 0 0 1-.46-1.29zm21.5.37v4.35h6.84v2.38h-6.84v9.76a5 5 0 0 0 .26 1.73 2.79 2.79 0 0 0 .73 1.09 2.68 2.68 0 0 0 1.08.57 4.83 4.83 0 0 0 1.28.17 9 9 0 0 0 1-.06l1-.14.95-.18.72-.15.43 2.17a4 4 0 0 1-.93.41 10.86 10.86 0 0 1-1.19.3c-.44.08-.89.15-1.37.19s-1 .07-1.44.07a7.1 7.1 0 0 1-2.24-.35 4.57 4.57 0 0 1-1.8-1.07 5.11 5.11 0 0 1-1.2-1.91 8 8 0 0 1-.44-2.84v-9.76h-4.72v-2.38h4.72v-4.35zm16.21 7.02a7 7 0 0 1 2.38-2.2 6.57 6.57 0 0 1 3.17-.8 7.74 7.74 0 0 1 2.57.4 5 5 0 0 1 2 1.27 5.74 5.74 0 0 1 1.26 2.19 10 10 0 0 1 .44 3.13v11.31h-3.07v-11.34a4.55 4.55 0 0 0-1.06-3.29 3.93 3.93 0 0 0-3-1.06 5.16 5.16 0 0 0-2.69.72 5.77 5.77 0 0 0-1.95 1.92v13h-3.07v-25.46h3.07zm45.93 15.64a10.12 10.12 0 0 1-3.77-.68 8.92 8.92 0 0 1-2.9-1.86 7.94 7.94 0 0 1-1.87-2.76 8.68 8.68 0 0 1-.66-3.39v-.67A10.56 10.56 0 0 1 369 150a8.67 8.67 0 0 1 1.81-2.93 8 8 0 0 1 2.76-1.91 8.63 8.63 0 0 1 3.47-.68 8.75 8.75 0 0 1 3.46.64 7.07 7.07 0 0 1 2.58 1.8 7.72 7.72 0 0 1 1.6 2.8 11.16 11.16 0 0 1 .55 3.61v2H373a4.62 4.62 0 0 0 .54 1.67 4.57 4.57 0 0 0 1 1.31 4.75 4.75 0 0 0 1.45.84 5.08 5.08 0 0 0 1.78.3 6.85 6.85 0 0 0 2.64-.52 5.77 5.77 0 0 0 1.14-.64 4.42 4.42 0 0 0 .93-.9l2.31 2.49a6.53 6.53 0 0 1-1.12 1.21 7.47 7.47 0 0 1-1.63 1 9.61 9.61 0 0 1-2.08.74 10.28 10.28 0 0 1-2.43.24zm-.53-14.91a3.68 3.68 0 0 0-1.43.28 3.44 3.44 0 0 0-1.14.79 4.33 4.33 0 0 0-.82 1.23 6.73 6.73 0 0 0-.5 1.59h7.57v-.36a4.19 4.19 0 0 0-.28-1.38 3.11 3.11 0 0 0-.71-1.12 3.24 3.24 0 0 0-1.14-.75 4.16 4.16 0 0 0-1.55-.28zm15.1-3.4l.14 2.18a4.41 4.41 0 0 1 1.42-1.84 3.55 3.55 0 0 1 2.2-.67 2.71 2.71 0 0 1 2.84 1.91 4 4 0 0 1 1.35-1.41 3.79 3.79 0 0 1 2-.5 3.85 3.85 0 0 1 1.52.3 3.11 3.11 0 0 1 1.23 1 4.81 4.81 0 0 1 .81 1.7 9.62 9.62 0 0 1 .29 2.53v12.82h-4.2v-12.89a2.8 2.8 0 0 0-.11-.84 1.33 1.33 0 0 0-.29-.53.93.93 0 0 0-.42-.26 1.73 1.73 0 0 0-.49-.08 1.42 1.42 0 0 0-.82.23 1.49 1.49 0 0 0-.51.6v13.72H395v-12.85a3.24 3.24 0 0 0-.1-.85 1.35 1.35 0 0 0-.28-.52.94.94 0 0 0-.4-.25 1.69 1.69 0 0 0-.5-.08 1.22 1.22 0 0 0-.86.3 2.07 2.07 0 0 0-.5.8v13.45h-4.21v-18zm29.14 13.04a1.35 1.35 0 0 0-.19-.73 1.84 1.84 0 0 0-.68-.59 6.64 6.64 0 0 0-1.31-.51c-.54-.15-1.23-.31-2.06-.46a20.64 20.64 0 0 1-2.88-.79 9.14 9.14 0 0 1-2.23-1.15 5.22 5.22 0 0 1-1.46-1.55 3.88 3.88 0 0 1-.52-2 4.53 4.53 0 0 1 .53-2.12 5.49 5.49 0 0 1 1.53-1.78 7.47 7.47 0 0 1 2.43-1.21 10.66 10.66 0 0 1 3.22-.45 11.71 11.71 0 0 1 3.37.44 7.73 7.73 0 0 1 2.53 1.21 5.34 5.34 0 0 1 1.59 1.84 4.85 4.85 0 0 1 .55 2.3H421a2.19 2.19 0 0 0-.85-1.75 3.94 3.94 0 0 0-2.57-.7 4.15 4.15 0 0 0-2.43.58 1.71 1.71 0 0 0-.83 1.43 1.63 1.63 0 0 0 .17.73 1.57 1.57 0 0 0 .59.62 4.86 4.86 0 0 0 1.15.5 12.91 12.91 0 0 0 1.86.39 24.24 24.24 0 0 1 3 .68 9.38 9.38 0 0 1 2.41 1.07 5 5 0 0 1 1.58 1.6 4.21 4.21 0 0 1 .58 2.23 4.38 4.38 0 0 1-.58 2.2 5.27 5.27 0 0 1-1.63 1.74 8.56 8.56 0 0 1-2.55 1.14 12.72 12.72 0 0 1-3.33.4 10.84 10.84 0 0 1-3.58-.53 8.12 8.12 0 0 1-2.6-1.39 5.82 5.82 0 0 1-1.59-1.94 4.84 4.84 0 0 1-.54-2.18h4.4a2.54 2.54 0 0 0 .4 1.25 2.72 2.72 0 0 0 .9.85 4.22 4.22 0 0 0 1.25.47 7 7 0 0 0 1.46.15 5 5 0 0 0 2.6-.55 1.61 1.61 0 0 0 .97-1.44zm16.76 1.58a4.31 4.31 0 0 0 1.3-.2 3.33 3.33 0 0 0 1.07-.57 2.48 2.48 0 0 0 .73-.88 2.26 2.26 0 0 0 .22-1.14h4.35a5.21 5.21 0 0 1-.57 2.59 6.32 6.32 0 0 1-1.65 2.06 7.91 7.91 0 0 1-2.44 1.35 8.62 8.62 0 0 1-2.93.49 8.93 8.93 0 0 1-3.67-.7 7.36 7.36 0 0 1-2.63-1.94 8.27 8.27 0 0 1-1.6-2.88 11.38 11.38 0 0 1-.54-3.55v-.5a11.31 11.31 0 0 1 .54-3.54 8 8 0 0 1 1.59-2.88 7.69 7.69 0 0 1 2.63-2 8.84 8.84 0 0 1 3.65-.71 9 9 0 0 1 3.07.5 7.42 7.42 0 0 1 2.44 1.4 6.1 6.1 0 0 1 1.58 2.19 6.58 6.58 0 0 1 .53 2.88h-4.35a3 3 0 0 0-.2-1.26 2.77 2.77 0 0 0-.68-1 3.33 3.33 0 0 0-1.08-.69 3.65 3.65 0 0 0-1.38-.26 3.35 3.35 0 0 0-1.81.45 3.45 3.45 0 0 0-1.14 1.2 5.32 5.32 0 0 0-.59 1.71 10.83 10.83 0 0 0-.18 2v.5a12.05 12.05 0 0 0 .17 2 4.94 4.94 0 0 0 .59 1.71 3.33 3.33 0 0 0 1.14 1.19 3.44 3.44 0 0 0 1.84.48zm25.39-14.95a11.67 11.67 0 0 1 1.93.14 9.47 9.47 0 0 1 1.44.31l-.68 4.6a14.63 14.63 0 0 0-1.87-.33 16.76 16.76 0 0 0-1.82-.1 5.72 5.72 0 0 0-3.12.74 4.57 4.57 0 0 0-1.75 2.15v10.79h-4.62v-18h4.31l.21 2.94a8.21 8.21 0 0 1 2.63-2.4 6.63 6.63 0 0 1 3.34-.84zm8.73.33h9.79V159h4.87v3.75h-14.66V159h5.12v-10.47h-5.12zm4.79-4.6a2.46 2.46 0 0 1 .19-1 2.18 2.18 0 0 1 .54-.78 2.37 2.37 0 0 1 .84-.51 3.12 3.12 0 0 1 1.09-.18 2.7 2.7 0 0 1 1.95.69 2.54 2.54 0 0 1 0 3.54 2.7 2.7 0 0 1-1.95.69 2.9 2.9 0 0 1-1.09-.19 2.5 2.5 0 0 1-.84-.5 2.37 2.37 0 0 1-.54-.78 2.53 2.53 0 0 1-.19-.98zm30.55 13.75a13.59 13.59 0 0 1-.46 3.64 8.71 8.71 0 0 1-1.34 2.9 6.57 6.57 0 0 1-2.21 1.92 6.33 6.33 0 0 1-3 .7 6.09 6.09 0 0 1-2.54-.5 5.63 5.63 0 0 1-1.91-1.4v8.47h-4.62v-24.88h4.27l.16 1.76a5.61 5.61 0 0 1 4.6-2.09 6.82 6.82 0 0 1 3 .65 6.27 6.27 0 0 1 2.21 1.86 8.67 8.67 0 0 1 1.35 2.89 14.06 14.06 0 0 1 .46 3.73zm-4.62-.35a10.06 10.06 0 0 0-.21-2.11 5.4 5.4 0 0 0-.65-1.72 3.22 3.22 0 0 0-1.13-1.13 3.1 3.1 0 0 0-1.66-.42 3.81 3.81 0 0 0-2 .47A3.25 3.25 0 0 0 496 150v7.51a3.34 3.34 0 0 0 1.2 1.35 3.6 3.6 0 0 0 2 .51 3.07 3.07 0 0 0 1.67-.43 3.34 3.34 0 0 0 1.12-1.18 5.6 5.6 0 0 0 .63-1.74 10.77 10.77 0 0 0 .2-2.1zm17.36-13.2v4.4h6.71v3.4h-6.71v7.73a5.16 5.16 0 0 0 .22 1.64 2.63 2.63 0 0 0 .64 1 2.38 2.38 0 0 0 1 .56 4.86 4.86 0 0 0 1.32.17c.35 0 .72 0 1.09-.05l1.06-.13 1-.16c.29-.05.54-.11.75-.16l.45 3.17a5.64 5.64 0 0 1-1.13.49 10.71 10.71 0 0 1-1.38.34c-.48.09-1 .16-1.52.21s-1 .07-1.55.07a8.63 8.63 0 0 1-2.68-.39 5.19 5.19 0 0 1-2.06-1.21 5.5 5.5 0 0 1-1.32-2.09 8.93 8.93 0 0 1-.47-3v-8.18h-4.1v-3.4h4.1v-4.4zm20.66 22.71a10.12 10.12 0 0 1-3.77-.68 9 9 0 0 1-2.9-1.86 8.08 8.08 0 0 1-1.87-2.76 8.68 8.68 0 0 1-.66-3.39v-.67a10.56 10.56 0 0 1 .65-3.76 8.83 8.83 0 0 1 1.81-2.93 8.19 8.19 0 0 1 2.76-1.91 8.63 8.63 0 0 1 3.47-.68 8.75 8.75 0 0 1 3.46.64 7 7 0 0 1 2.58 1.8 7.72 7.72 0 0 1 1.6 2.8 11.16 11.16 0 0 1 .55 3.61v2h-12.19a4.82 4.82 0 0 0 .54 1.67 4.57 4.57 0 0 0 1 1.31 4.87 4.87 0 0 0 1.45.84 5.12 5.12 0 0 0 1.78.3 6.85 6.85 0 0 0 2.64-.52 6.15 6.15 0 0 0 1.15-.64 5 5 0 0 0 .93-.9l2.3 2.49a6.53 6.53 0 0 1-1.12 1.21 7.64 7.64 0 0 1-1.62 1 9.9 9.9 0 0 1-2.09.74 10.22 10.22 0 0 1-2.45.29zm-.54-14.91a3.68 3.68 0 0 0-1.43.28 3.44 3.44 0 0 0-1.14.79 4.33 4.33 0 0 0-.82 1.23 6.73 6.73 0 0 0-.5 1.59H544v-.36a4.19 4.19 0 0 0-.28-1.38 3.11 3.11 0 0 0-.71-1.12 3.24 3.24 0 0 0-1.14-.75 4.16 4.16 0 0 0-1.55-.28zm16.43-3.4l.28 2.49a6.73 6.73 0 0 1 2.34-2.08 6.3 6.3 0 0 1 3.06-.74 7.31 7.31 0 0 1 2.49.4 4.75 4.75 0 0 1 2 1.27 5.89 5.89 0 0 1 1.28 2.24 10.7 10.7 0 0 1 .46 3.33v11.06H564v-11a5.46 5.46 0 0 0-.24-1.76 2.46 2.46 0 0 0-.69-1.08 2.43 2.43 0 0 0-1.08-.56 5.69 5.69 0 0 0-1.43-.16 4 4 0 0 0-2 .47 3.82 3.82 0 0 0-1.36 1.36v12.77h-4.64v-18z"/></svg>