<svg xmlns="http://www.w3.org/2000/svg" viewBox="0 0 684 224"><path fill="none" stroke="#000" stroke-miterlimit="10" stroke-width="4" d="M2 2h680v220H2z"/><path d="M125.07 57.86a4 4 0 0 0-1.53-3.34 20.31 20.31 0 0 0-5.54-2.45 38.59 38.59 0 0 1-6.32-2.55q-6.34-3.42-6.34-9.23a9 9 0 0 1 1.7-5.39 11.06 11.06 0 0 1 4.89-3.7 18.48 18.48 0 0 1 7.15-1.33 16.79 16.79 0 0 1 7.11 1.45 11.28 11.28 0 0 1 4.85 4.08 10.69 10.69 0 0 1 1.72 6h-7.66a5 5 0 0 0-1.61-4A6.63 6.63 0 0 0 119 36a7.11 7.11 0 0 0-4.38 1.19 3.75 3.75 0 0 0-1.62 3.12 3.6 3.6 0 0 0 1.83 3 20.82 20.82 0 0 0 5.39 2.3c4.36 1.31 7.55 2.94 9.54 4.89a9.69 9.69 0 0 1 3 7.26 9 9 0 0 1-3.65 7.59q-3.66 2.75-9.85 2.75a19 19 0 0 1-7.83-1.58 12.29 12.29 0 0 1-5.39-4.31 11.07 11.07 0 0 1-1.85-6.34h7.7q0 6.16 7.37 6.16a7.18 7.18 0 0 0 4.28-1.03 3.63 3.63 0 0 0 1.53-3.14zm12.36-25.07a3.65 3.65 0 0 1 1.11-2.74 4.24 4.24 0 0 1 3-1.07 4.2 4.2 0 0 1 3 1.07 3.9 3.9 0 0 1 0 5.5 4.72 4.72 0 0 1-6 0 3.61 3.61 0 0 1-1.11-2.76zm7.86 34.85h-7.42V40h7.42zM158.31 40l.23 3.1a9.7 9.7 0 0 1 8-3.61q5.35 0 7.35 4.22a9.5 9.5 0 0 1 8.31-4.22c3 0 5.24.88 6.7 2.62s2.2 4.38 2.2 7.9v17.63h-7.41V50a5.24 5.24 0 0 0-.93-3.44 4.07 4.07 0 0 0-3.24-1.09 4.62 4.62 0 0 0-4.61 3.18v19h-7.4V50a5.23 5.23 0 0 0-.94-3.48 4.13 4.13 0 0 0-3.23-1.08 4.79 4.79 0 0 0-4.55 2.61v19.59h-7.4V40zm63.34 14.05q0 6.41-2.9 10.25a9.33 9.33 0 0 1-7.84 3.85 8.6 8.6 0 0 1-6.78-2.92v13h-7.4V40h6.86l.26 2.72a8.68 8.68 0 0 1 7-3.23 9.35 9.35 0 0 1 7.95 3.79q2.85 3.78 2.84 10.44zm-7.39-.54a10.93 10.93 0 0 0-1.37-6 4.46 4.46 0 0 0-4-2.1q-3.48 0-4.78 2.67v11.37a4.92 4.92 0 0 0 4.89 2.74q5.26 0 5.26-8.68zM234 67.64h-7.42v-39.3H234zm18.87.51a13.61 13.61 0 0 1-9.87-3.74 13.28 13.28 0 0 1-3.82-9.95v-.72a16.61 16.61 0 0 1 1.61-7.45 11.85 11.85 0 0 1 4.57-5.07 12.85 12.85 0 0 1 6.74-1.78A11.53 11.53 0 0 1 261 43q3.25 3.58 3.26 10.16v3h-17.64a6.88 6.88 0 0 0 2.16 4.35 6.57 6.57 0 0 0 4.57 1.64 8 8 0 0 0 6.68-3.1l3.63 4.07a11.12 11.12 0 0 1-4.5 3.67 14.73 14.73 0 0 1-6.29 1.36zM252 45.4a4.63 4.63 0 0 0-3.57 1.49 7.8 7.8 0 0 0-1.75 4.27H257v-.59a5.45 5.45 0 0 0-1.33-3.82A4.75 4.75 0 0 0 252 45.4zm42.82 1.77l7.76-16.78H311l-12.26 23.74v13.51h-7.81V54.13l-12.22-23.74h8.41zm16.25 6.37a16.36 16.36 0 0 1 1.59-7.34 11.55 11.55 0 0 1 4.56-5 13.32 13.32 0 0 1 6.92-1.77 12.63 12.63 0 0 1 9.15 3.43 13.76 13.76 0 0 1 3.95 9.31l.05 1.9q0 6.36-3.55 10.22a13.78 13.78 0 0 1-19.1 0q-3.57-3.84-3.57-10.44zm7.39.52a10.33 10.33 0 0 0 1.49 6 5.32 5.32 0 0 0 8.44 0q1.51-2.05 1.51-6.59a10.23 10.23 0 0 0-1.51-6 4.91 4.91 0 0 0-4.25-2.13 4.82 4.82 0 0 0-4.14 2.18q-1.54 2.12-1.54 6.54zm39.97 10.76a9.28 9.28 0 0 1-7.58 3.33c-3 0-5.23-.85-6.79-2.56s-2.36-4.2-2.39-7.5V40h7.39v17.86c0 2.88 1.32 4.33 3.94 4.33s4.23-.87 5.17-2.62V40h7.42v27.64h-7zm41.26-28.22h-11.41v31h-7.67v-31h-11.26v-6.21h30.34zm18.81 28.22a9.28 9.28 0 0 1-7.58 3.33c-3 0-5.23-.85-6.79-2.56s-2.36-4.2-2.39-7.5V40h7.39v17.86c0 2.88 1.32 4.33 3.94 4.33s4.23-.87 5.17-2.62V40h7.42v27.64h-7zm37.68-10.77c0 4.44-.94 7.89-2.84 10.38a9.41 9.41 0 0 1-7.93 3.72 8.63 8.63 0 0 1-7.19-3.46l-.33 3h-6.65V28.34h7.39v14.1a8.42 8.42 0 0 1 6.73-3 9.46 9.46 0 0 1 7.94 3.72q2.88 3.73 2.88 10.48zm-7.39-.54c0-2.79-.45-4.84-1.33-6.12a4.51 4.51 0 0 0-4-1.94 4.88 4.88 0 0 0-4.86 2.9v10.92a5 5 0 0 0 4.91 2.92 4.57 4.57 0 0 0 4.71-3.53 18.17 18.17 0 0 0 .57-5.15zm24.69 14.64a13.61 13.61 0 0 1-9.92-3.74 13.28 13.28 0 0 1-3.82-9.95v-.72a16.61 16.61 0 0 1 1.61-7.45 11.85 11.85 0 0 1 4.57-5.07 12.85 12.85 0 0 1 6.74-1.78A11.51 11.51 0 0 1 481.6 43q3.25 3.58 3.26 10.16v3h-17.63a6.84 6.84 0 0 0 2.17 4.35 6.53 6.53 0 0 0 4.6 1.68 8 8 0 0 0 6.68-3.1l3.63 4.07a11.12 11.12 0 0 1-4.5 3.67 14.73 14.73 0 0 1-6.33 1.32zm-.85-22.75a4.66 4.66 0 0 0-3.57 1.49 7.8 7.8 0 0 0-1.75 4.27h10.28v-.59a5.45 5.45 0 0 0-1.33-3.82 4.75 4.75 0 0 0-3.63-1.35zM523.62 60h-13.46l-2.55 7.68h-8.17l13.87-37.25h7.11l14 37.25h-8.22zm-11.38-6.22h9.31l-4.68-13.98zm33.28.73v13.13h-7.67V30.39h14.53a16.87 16.87 0 0 1 7.38 1.53 11.38 11.38 0 0 1 4.9 4.36 12.21 12.21 0 0 1 1.71 6.44 10.68 10.68 0 0 1-3.75 8.63q-3.74 3.16-10.37 3.16zm0-6.22h6.86a6.71 6.71 0 0 0 4.62-1.43 5.19 5.19 0 0 0 1.6-4.09 6.17 6.17 0 0 0-1.6-4.43 6.08 6.08 0 0 0-4.45-1.74h-7zm34.28 19.35h-7.67V30.39h7.67zM71.69 119.3h11.83v2.61h-14.9V97.72h3.07zm17.43-15.37h9.19v15.32h5.86v2.66h-15v-2.66h6.11v-12.64h-6.16zm5.72-4.71a1.91 1.91 0 0 1 .45-1.29 2.07 2.07 0 0 1 2.77 0 1.87 1.87 0 0 1 .46 1.29 1.75 1.75 0 0 1-.46 1.24 2.17 2.17 0 0 1-2.77 0 1.79 1.79 0 0 1-.45-1.24zm29.45 13.9a13.44 13.44 0 0 1-.47 3.6 8.78 8.78 0 0 1-1.36 2.89 6.42 6.42 0 0 1-2.22 1.93 6.33 6.33 0 0 1-3 .7 7 7 0 0 1-3-.61 6 6 0 0 1-2.16-1.77l-.15 2h-2.83V96.39h3.08v9.47a5.86 5.86 0 0 1 2.12-1.68 6.78 6.78 0 0 1 2.91-.58 6.69 6.69 0 0 1 3.06.68 6.44 6.44 0 0 1 2.22 1.9 8.59 8.59 0 0 1 1.36 2.89 13.93 13.93 0 0 1 .47 3.7zm-3.07-.35a11.9 11.9 0 0 0-.26-2.5 6.61 6.61 0 0 0-.82-2.09 4.25 4.25 0 0 0-1.48-1.44 4.46 4.46 0 0 0-2.25-.53 4.86 4.86 0 0 0-1.46.21 4.06 4.06 0 0 0-1.18.58 4.56 4.56 0 0 0-.93.88 4.84 4.84 0 0 0-.69 1.1v7.86a5.78 5.78 0 0 0 .7 1.11 4.91 4.91 0 0 0 .94.88 3.74 3.74 0 0 0 1.2.59 4.81 4.81 0 0 0 1.46.21 4.06 4.06 0 0 0 3.64-1.94 6.36 6.36 0 0 0 .85-2.08 11.11 11.11 0 0 0 .28-2.49zm20.03-9.17h.9a8.41 8.41 0 0 1 .89.08 7.82 7.82 0 0 1 .78.14c.23.06.43.12.59.18l-.42 3c-.6-.13-1.17-.23-1.7-.29a15.26 15.26 0 0 0-1.69-.09 5.71 5.71 0 0 0-3.49 1 5.56 5.56 0 0 0-2 2.74v11.53h-3.09v-18H135l.15 2.86a8.34 8.34 0 0 1 2.63-2.33 7.09 7.09 0 0 1 3.47-.82zm20.45 18.31a3.41 3.41 0 0 1-.29-.87 9.53 9.53 0 0 1-.16-1.09 9.09 9.09 0 0 1-1 .88 7.7 7.7 0 0 1-1.26.73 8.47 8.47 0 0 1-1.47.5 7.35 7.35 0 0 1-1.66.18 7.51 7.51 0 0 1-2.58-.42 5.85 5.85 0 0 1-2-1.12A4.86 4.86 0 0 1 150 119a5.11 5.11 0 0 1-.44-2.11 5.5 5.5 0 0 1 .59-2.59 5.1 5.1 0 0 1 1.67-1.85 7.7 7.7 0 0 1 2.6-1.1 14.17 14.17 0 0 1 3.4-.37h3.35v-1.38a3.43 3.43 0 0 0-.3-1.46 3.08 3.08 0 0 0-.85-1.11 3.83 3.83 0 0 0-1.33-.7 5.78 5.78 0 0 0-1.77-.25 5.2 5.2 0 0 0-1.64.23 4 4 0 0 0-1.22.61 2.78 2.78 0 0 0-.77.91 2.36 2.36 0 0 0-.28 1.09H150a4.38 4.38 0 0 1 .51-1.93 5.5 5.5 0 0 1 1.41-1.7 7.33 7.33 0 0 1 2.25-1.22 9 9 0 0 1 3-.47 10.79 10.79 0 0 1 2.83.4 6.49 6.49 0 0 1 2.26 1.13 5.47 5.47 0 0 1 1.51 1.89 6 6 0 0 1 .54 2.64V118a11.75 11.75 0 0 0 .17 1.9 8.35 8.35 0 0 0 .47 1.75v.27zm-5.43-2.35a5.73 5.73 0 0 0 1.68-.23 6.27 6.27 0 0 0 1.42-.61 5.7 5.7 0 0 0 1.1-.87 4.32 4.32 0 0 0 .73-1v-3.63h-2.86a9 9 0 0 0-4.18.79 2.65 2.65 0 0 0-1.5 2.51 3.28 3.28 0 0 0 .23 1.23 2.53 2.53 0 0 0 .67 1 3.18 3.18 0 0 0 1.13.64 4.74 4.74 0 0 0 1.58.17zm25.81-15.96h.9a8.18 8.18 0 0 1 .89.08 7.82 7.82 0 0 1 .78.14 5.39 5.39 0 0 1 .59.18l-.42 3a16.36 16.36 0 0 0-1.7-.29 15.26 15.26 0 0 0-1.69-.09 5.73 5.73 0 0 0-3.49 1 5.62 5.62 0 0 0-2 2.74v11.53h-3.09v-18h2.92l.15 2.86a8.26 8.26 0 0 1 2.64-2.33 7.05 7.05 0 0 1 3.52-.82zm15.25 11.93l.8 2.17 5.48-13.77h3.44l-9.12 20.75a12.92 12.92 0 0 1-.8 1.48 8.12 8.12 0 0 1-1.19 1.45 6.51 6.51 0 0 1-1.63 1.11 4.88 4.88 0 0 1-2.14.45h-.49l-.53-.06-.49-.1-.39-.08.5-2.51h1.46a2.08 2.08 0 0 0 1.16-.35 4.61 4.61 0 0 0 .93-.83 7.88 7.88 0 0 0 .7-1c.19-.34.34-.63.45-.85l1.23-2.39-7.7-17.07h3.44zm33.67-2.76a12.78 12.78 0 0 1 .51-3.7 8.9 8.9 0 0 1 1.44-2.89 6.89 6.89 0 0 1 2.27-1.9 6.5 6.5 0 0 1 3-.68 6.81 6.81 0 0 1 2.81.54 5.91 5.91 0 0 1 2.09 1.57v-9.32h3.07v25.52h-2.82l-.14-1.9a6 6 0 0 1-2.14 1.67 7.09 7.09 0 0 1-2.91.56 6.18 6.18 0 0 1-2.95-.7 6.7 6.7 0 0 1-2.25-1.93 9.1 9.1 0 0 1-1.44-2.89 12 12 0 0 1-.52-3.6zm3.08.35a10.56 10.56 0 0 0 .28 2.49 6.61 6.61 0 0 0 .87 2.08 4.16 4.16 0 0 0 3.7 1.94 5.13 5.13 0 0 0 1.41-.18 4.16 4.16 0 0 0 2.06-1.34 6 6 0 0 0 .7-1v-8.34a5.31 5.31 0 0 0-1.62-1.81 4.28 4.28 0 0 0-2.52-.7 4.19 4.19 0 0 0-3.73 2 6.67 6.67 0 0 0-.87 2.09 10.7 10.7 0 0 0-.28 2.5zm25.83 9.12a9.17 9.17 0 0 1-3.48-.65 7.86 7.86 0 0 1-2.72-1.81A8.21 8.21 0 0 1 252 117a9.35 9.35 0 0 1-.63-3.47v-.7A10.14 10.14 0 0 1 252 109a9 9 0 0 1 1.85-2.91 8.13 8.13 0 0 1 2.63-1.82 7.56 7.56 0 0 1 3-.63 8.15 8.15 0 0 1 3.4.67 6.77 6.77 0 0 1 2.42 1.86 8 8 0 0 1 1.43 2.8 12.22 12.22 0 0 1 .48 3.49v1.38H254.4a7 7 0 0 0 .47 2.31A6.05 6.05 0 0 0 256 118a5.41 5.41 0 0 0 1.77 1.27 5.5 5.5 0 0 0 2.28.46 6.28 6.28 0 0 0 2.92-.66 6.53 6.53 0 0 0 2.13-1.76l1.87 1.46a6.68 6.68 0 0 1-1.12 1.3 7.47 7.47 0 0 1-1.55 1.11 8.68 8.68 0 0 1-2 .77 9.81 9.81 0 0 1-2.39.29zm-.4-16.11a4.56 4.56 0 0 0-3.25 1.33 5.57 5.57 0 0 0-1.12 1.61 7.53 7.53 0 0 0-.64 2.21h9.66V111a6.44 6.44 0 0 0-.34-1.77 4.92 4.92 0 0 0-.85-1.58 4.28 4.28 0 0 0-1.42-1.13 4.45 4.45 0 0 0-2.04-.39zm24.82 11.01a2.12 2.12 0 0 0-.22-1 2.1 2.1 0 0 0-.73-.8 5.54 5.54 0 0 0-1.36-.68 14.4 14.4 0 0 0-2.11-.55 20.64 20.64 0 0 1-2.81-.77 9 9 0 0 1-2.18-1.07 4.62 4.62 0 0 1-1.4-1.46 3.68 3.68 0 0 1-.5-1.95 4.27 4.27 0 0 1 .51-2.05 5.23 5.23 0 0 1 1.45-1.67 7 7 0 0 1 2.22-1.14 9 9 0 0 1 2.83-.42 9.6 9.6 0 0 1 3 .43 7 7 0 0 1 2.26 1.2 5.44 5.44 0 0 1 1.44 1.78 5 5 0 0 1 .5 2.21h-3.07a2.37 2.37 0 0 0-.3-1.14 3.37 3.37 0 0 0-.83-1 4.29 4.29 0 0 0-1.29-.7 5 5 0 0 0-1.7-.26 6.28 6.28 0 0 0-1.72.21 4.13 4.13 0 0 0-1.23.58 2.57 2.57 0 0 0-.74.85 2.09 2.09 0 0 0-.25 1 2.16 2.16 0 0 0 .2.94 1.87 1.87 0 0 0 .69.75 5.38 5.38 0 0 0 1.31.6 17.35 17.35 0 0 0 2.09.51 26.64 26.64 0 0 1 3 .81 8.76 8.76 0 0 1 2.21 1.1 4.56 4.56 0 0 1 1.37 1.48 3.92 3.92 0 0 1 .47 2 4.43 4.43 0 0 1-.54 2.18 5.2 5.2 0 0 1-1.5 1.68 7.48 7.48 0 0 1-2.31 1.08 10.9 10.9 0 0 1-2.94.38 9.87 9.87 0 0 1-3.25-.49 7.74 7.74 0 0 1-2.42-1.3 5.56 5.56 0 0 1-1.51-1.86 5 5 0 0 1-.53-2.21h3.08A3.15 3.15 0 0 0 276 118a3.67 3.67 0 0 0 1.1 1 4.7 4.7 0 0 0 1.45.56 7.87 7.87 0 0 0 1.58.17 5.65 5.65 0 0 0 3.07-.72 2.17 2.17 0 0 0 1.13-1.87zm8.95-13.21h9.19v15.32h5.87v2.66h-15.06v-2.66h6.12v-12.64h-6.12zm5.72-4.71a1.87 1.87 0 0 1 .46-1.29 1.72 1.72 0 0 1 1.38-.53 1.75 1.75 0 0 1 1.38.53 1.88 1.88 0 0 1 .47 1.29 1.76 1.76 0 0 1-.47 1.24 1.81 1.81 0 0 1-1.38.5 1.78 1.78 0 0 1-1.38-.5 1.75 1.75 0 0 1-.46-1.24zm13.65 13.55a13.52 13.52 0 0 1 .49-3.7 8.5 8.5 0 0 1 1.43-2.89 6.72 6.72 0 0 1 2.25-1.9 6.57 6.57 0 0 1 3-.68 6.86 6.86 0 0 1 2.92.59 5.93 5.93 0 0 1 2.13 1.7l.15-2h2.79v17.6a8.19 8.19 0 0 1-.56 3.15 6.58 6.58 0 0 1-1.55 2.36 6.67 6.67 0 0 1-2.4 1.47 9.19 9.19 0 0 1-3.09.49 9.48 9.48 0 0 1-3.41-.67 8.27 8.27 0 0 1-1.78-1 5.91 5.91 0 0 1-1.47-1.48l1.6-1.85a7.48 7.48 0 0 0 1.16 1.16 5.85 5.85 0 0 0 1.21.75 5.39 5.39 0 0 0 1.23.41 6.42 6.42 0 0 0 1.23.13 5.87 5.87 0 0 0 2-.32 4.16 4.16 0 0 0 1.5-.92 4.12 4.12 0 0 0 1-1.51 5.88 5.88 0 0 0 .33-2v-1.55a6 6 0 0 1-2.12 1.57 6.94 6.94 0 0 1-2.83.54 6.27 6.27 0 0 1-3-.7 6.7 6.7 0 0 1-2.25-1.93 9.28 9.28 0 0 1-1.42-2.89 12.68 12.68 0 0 1-.5-3.6zm3.08.35a11.11 11.11 0 0 0 .27 2.49 6.18 6.18 0 0 0 .87 2.08 4.16 4.16 0 0 0 3.69 1.94 5 5 0 0 0 1.44-.19 4.2 4.2 0 0 0 1.15-.54 4.7 4.7 0 0 0 .9-.83 5.9 5.9 0 0 0 .7-1.06v-8.24a5.33 5.33 0 0 0-.7-1 4.67 4.67 0 0 0-.91-.81 4.47 4.47 0 0 0-1.15-.53 4.74 4.74 0 0 0-1.4-.19 4.38 4.38 0 0 0-2.21.53 4.34 4.34 0 0 0-1.51 1.44 6.23 6.23 0 0 0-.87 2.09 11.27 11.27 0 0 0-.27 2.5zm20.66-9.19l.22 2.66a7.06 7.06 0 0 1 2.41-2.18 6.54 6.54 0 0 1 3.19-.81 7.68 7.68 0 0 1 2.56.4 4.89 4.89 0 0 1 2 1.25 5.75 5.75 0 0 1 1.23 2.15 9.79 9.79 0 0 1 .44 3.09v11.42h-3.08v-11.35a6.68 6.68 0 0 0-.26-2 3 3 0 0 0-2.07-2.09 6.06 6.06 0 0 0-1.74-.23 4.84 4.84 0 0 0-2.71.77 5.73 5.73 0 0 0-1.87 2v12.89h-3.07v-18zM362 122.24a9.17 9.17 0 0 1-3.48-.65 7.73 7.73 0 0 1-2.71-1.81A8.23 8.23 0 0 1 354 117a9.35 9.35 0 0 1-.63-3.47v-.7a10.34 10.34 0 0 1 .7-3.89 9 9 0 0 1 1.85-2.91 8.13 8.13 0 0 1 2.63-1.82 7.56 7.56 0 0 1 3-.63 8.15 8.15 0 0 1 3.4.67 6.68 6.68 0 0 1 2.42 1.86 8 8 0 0 1 1.43 2.8 12.22 12.22 0 0 1 .48 3.49v1.38h-12.8a7 7 0 0 0 .47 2.31 6.05 6.05 0 0 0 1.16 1.89 5.63 5.63 0 0 0 1.77 1.27 5.5 5.5 0 0 0 2.28.46 6.28 6.28 0 0 0 2.92-.66 6.53 6.53 0 0 0 2.13-1.76l1.88 1.46a7.11 7.11 0 0 1-1.13 1.3 7.21 7.21 0 0 1-1.55 1.11 8.68 8.68 0 0 1-2 .77 9.75 9.75 0 0 1-2.41.31zm-.4-16.11a4.56 4.56 0 0 0-3.25 1.33 5.57 5.57 0 0 0-1.12 1.61 7.53 7.53 0 0 0-.64 2.21h9.66V111a6.44 6.44 0 0 0-.34-1.77 4.73 4.73 0 0 0-.85-1.58 4.28 4.28 0 0 0-1.42-1.13 4.45 4.45 0 0 0-2.05-.39zm12.29 6.64a13.14 13.14 0 0 1 .5-3.7 8.72 8.72 0 0 1 1.45-2.89 6.7 6.7 0 0 1 2.27-1.9 6.43 6.43 0 0 1 3-.68 6.89 6.89 0 0 1 2.82.54 5.88 5.88 0 0 1 2.08 1.57v-9.32h3.07v25.52h-2.82l-.13-1.9a6 6 0 0 1-2.15 1.67 7.08 7.08 0 0 1-2.9.56 6.15 6.15 0 0 1-2.95-.7 6.7 6.7 0 0 1-2.25-1.93 9.12 9.12 0 0 1-1.45-2.89 12.33 12.33 0 0 1-.51-3.6zm3.07.35a10.56 10.56 0 0 0 .28 2.49 6.61 6.61 0 0 0 .87 2.08 4.45 4.45 0 0 0 1.51 1.42 4.33 4.33 0 0 0 2.19.52 5.13 5.13 0 0 0 1.41-.18 4.3 4.3 0 0 0 1.15-.52 4.18 4.18 0 0 0 .91-.82 5.49 5.49 0 0 0 .7-1v-8.34a5.39 5.39 0 0 0-1.61-1.81 4.34 4.34 0 0 0-2.53-.7 4.38 4.38 0 0 0-2.21.53 4.45 4.45 0 0 0-1.52 1.44 6.67 6.67 0 0 0-.87 2.09 10.7 10.7 0 0 0-.28 2.5zm45.62-13.54v4.35h6.84v2.38h-6.84v9.77a4.94 4.94 0 0 0 .26 1.72 2.72 2.72 0 0 0 .73 1.09 2.82 2.82 0 0 0 1.08.58 4.83 4.83 0 0 0 1.28.16 9 9 0 0 0 1-.06c.36 0 .7-.08 1-.14s.66-.11.95-.17l.72-.16.43 2.18a4.06 4.06 0 0 1-.93.4 9 9 0 0 1-1.19.3 11.6 11.6 0 0 1-1.37.19 14 14 0 0 1-1.44.07 7.1 7.1 0 0 1-2.24-.34 4.71 4.71 0 0 1-1.8-1.08 5 5 0 0 1-1.2-1.91 7.94 7.94 0 0 1-.44-2.83v-9.77h-4.72v-2.38h4.72v-4.35zm12.27 13.17a11.11 11.11 0 0 1 .57-3.61 8.47 8.47 0 0 1 1.62-2.9 7.53 7.53 0 0 1 2.56-1.93 8.59 8.59 0 0 1 6.84 0 7.61 7.61 0 0 1 2.58 1.93 8.82 8.82 0 0 1 1.62 2.9 11.38 11.38 0 0 1 .56 3.61v.37a11.23 11.23 0 0 1-.56 3.6 8.67 8.67 0 0 1-1.62 2.89 7.44 7.44 0 0 1-2.57 1.93 8 8 0 0 1-3.41.7 8.09 8.09 0 0 1-3.43-.7 7.35 7.35 0 0 1-2.57-1.93 8.33 8.33 0 0 1-1.62-2.89 11 11 0 0 1-.57-3.6zm3.08.37a9.91 9.91 0 0 0 .31 2.53 6.43 6.43 0 0 0 1 2.12 4.73 4.73 0 0 0 1.6 1.45 4.61 4.61 0 0 0 2.24.53 4.55 4.55 0 0 0 2.22-.53 4.82 4.82 0 0 0 1.6-1.45 6.62 6.62 0 0 0 .95-2.12 9.91 9.91 0 0 0 .32-2.53v-.37a9.44 9.44 0 0 0-.33-2.51 6.43 6.43 0 0 0-1-2.12 4.82 4.82 0 0 0-1.6-1.45 4.87 4.87 0 0 0-4.46 0 4.76 4.76 0 0 0-1.58 1.45 6.43 6.43 0 0 0-1 2.12 9.86 9.86 0 0 0-.31 2.51zm38.07-.35a13.14 13.14 0 0 1 .49-3.7 8.49 8.49 0 0 1 1.42-2.89 6.66 6.66 0 0 1 2.26-1.9 6.5 6.5 0 0 1 3-.68 6.86 6.86 0 0 1 2.92.59 5.93 5.93 0 0 1 2.13 1.7l.15-2h2.79v17.6a8.39 8.39 0 0 1-.55 3.15 6.6 6.6 0 0 1-4 3.81 9.19 9.19 0 0 1-3.09.49 9.48 9.48 0 0 1-3.41-.67 8.51 8.51 0 0 1-1.78-1 5.91 5.91 0 0 1-1.47-1.48l1.6-1.85a7.48 7.48 0 0 0 1.16 1.16 5.85 5.85 0 0 0 1.21.75 5.39 5.39 0 0 0 1.23.41 6.42 6.42 0 0 0 1.23.13 5.87 5.87 0 0 0 2-.32 4.08 4.08 0 0 0 1.5-.92 4 4 0 0 0 1-1.51 5.88 5.88 0 0 0 .33-2v-1.55a5.93 5.93 0 0 1-2.12 1.61 6.94 6.94 0 0 1-2.83.54 6.2 6.2 0 0 1-3-.7 6.64 6.64 0 0 1-2.26-1.93 9.28 9.28 0 0 1-1.42-2.89 12.68 12.68 0 0 1-.49-3.6zm3.07.35a11.11 11.11 0 0 0 .27 2.49 6.39 6.39 0 0 0 .87 2.08 4.16 4.16 0 0 0 3.69 1.94 5 5 0 0 0 1.44-.19 4.2 4.2 0 0 0 1.15-.54 4.42 4.42 0 0 0 .9-.83 5.9 5.9 0 0 0 .7-1.06v-8.24a5.33 5.33 0 0 0-.7-1 4.4 4.4 0 0 0-.91-.81 4.47 4.47 0 0 0-1.15-.53 4.67 4.67 0 0 0-1.39-.19 4.39 4.39 0 0 0-2.22.53 4.34 4.34 0 0 0-1.51 1.44 6.44 6.44 0 0 0-.87 2.09 11.27 11.27 0 0 0-.27 2.5zm29.67-9.52h.9a8.18 8.18 0 0 1 .89.08 7.82 7.82 0 0 1 .78.14 4.78 4.78 0 0 1 .59.18l-.41 3a17 17 0 0 0-1.71-.29 15.08 15.08 0 0 0-1.68-.09 5.74 5.74 0 0 0-3.5 1 5.62 5.62 0 0 0-2 2.74v11.53h-3.09v-18h2.93l.14 2.86a8.37 8.37 0 0 1 2.64-2.33 7.05 7.05 0 0 1 3.52-.82zm16.58 18.64a9.17 9.17 0 0 1-3.48-.65 7.73 7.73 0 0 1-2.71-1.81 8.06 8.06 0 0 1-1.76-2.76 9.35 9.35 0 0 1-.64-3.47v-.7a10.34 10.34 0 0 1 .7-3.89 9 9 0 0 1 1.85-2.91 8.13 8.13 0 0 1 2.63-1.82 7.56 7.56 0 0 1 3-.63 8.15 8.15 0 0 1 3.4.67 6.68 6.68 0 0 1 2.42 1.86 8.17 8.17 0 0 1 1.44 2.8 12.58 12.58 0 0 1 .47 3.49v1.38h-12.83a7 7 0 0 0 .47 2.31 6.05 6.05 0 0 0 1.16 1.89 5.63 5.63 0 0 0 1.77 1.27 5.5 5.5 0 0 0 2.28.46 6.25 6.25 0 0 0 2.92-.66 6.43 6.43 0 0 0 2.13-1.76l1.88 1.46a7.45 7.45 0 0 1-1.12 1.3 7.54 7.54 0 0 1-1.56 1.11 8.5 8.5 0 0 1-2 .77 9.75 9.75 0 0 1-2.42.29zm-.4-16.11a4.56 4.56 0 0 0-3.25 1.33 5.78 5.78 0 0 0-1.12 1.61 7.53 7.53 0 0 0-.64 2.21h9.67V111a7.29 7.29 0 0 0-.34-1.77 4.94 4.94 0 0 0-.86-1.58 4.28 4.28 0 0 0-1.42-1.13 4.45 4.45 0 0 0-2.04-.39zm24.69 15.78a3.41 3.41 0 0 1-.29-.87c-.07-.35-.12-.72-.16-1.09a8.31 8.31 0 0 1-1 .88 7.7 7.7 0 0 1-1.26.73 8.47 8.47 0 0 1-1.47.5 7.35 7.35 0 0 1-1.66.18 7.51 7.51 0 0 1-2.58-.42 5.85 5.85 0 0 1-2-1.12 4.86 4.86 0 0 1-1.25-1.67 5.11 5.11 0 0 1-.44-2.11 5.5 5.5 0 0 1 .59-2.59 5.1 5.1 0 0 1 1.67-1.85 7.79 7.79 0 0 1 2.6-1.1 14.17 14.17 0 0 1 3.4-.37h3.35v-1.41a3.43 3.43 0 0 0-.3-1.46A3.17 3.17 0 0 0 548 107a3.88 3.88 0 0 0-1.34-.7 5.78 5.78 0 0 0-1.77-.25 5.2 5.2 0 0 0-1.64.23 4 4 0 0 0-1.22.61 2.78 2.78 0 0 0-.77.91 2.34 2.34 0 0 0-.27 1.09h-3.09a4.36 4.36 0 0 1 .5-1.93 5.5 5.5 0 0 1 1.41-1.7 7.33 7.33 0 0 1 2.25-1.22 9 9 0 0 1 3-.47 10.77 10.77 0 0 1 2.84.37 6.49 6.49 0 0 1 2.26 1.13 5.47 5.47 0 0 1 1.51 1.89 6 6 0 0 1 .55 2.64v8.4a11.69 11.69 0 0 0 .16 1.9 8.35 8.35 0 0 0 .47 1.75v.27zm-5.43-2.35a5.69 5.69 0 0 0 1.68-.23 6.27 6.27 0 0 0 1.42-.61 5.7 5.7 0 0 0 1.1-.87 4.06 4.06 0 0 0 .73-1v-3.63h-2.86a9 9 0 0 0-4.18.79 2.65 2.65 0 0 0-1.5 2.51 3.28 3.28 0 0 0 .23 1.23 2.53 2.53 0 0 0 .67 1 3.18 3.18 0 0 0 1.13.64 4.74 4.74 0 0 0 1.58.17zm21.31-19.98v4.35h6.85v2.38h-6.85v9.77a4.7 4.7 0 0 0 .27 1.72 2.62 2.62 0 0 0 .73 1.09 2.86 2.86 0 0 0 1.07.58 4.85 4.85 0 0 0 1.29.16 9.29 9.29 0 0 0 1-.06c.35 0 .7-.08 1-.14l.94-.17.72-.16.44 2.18a4.48 4.48 0 0 1-.93.4 9.56 9.56 0 0 1-1.2.3 11.31 11.31 0 0 1-1.37.19 13.88 13.88 0 0 1-1.44.07 7 7 0 0 1-2.23-.34 4.71 4.71 0 0 1-1.8-1.08 5.18 5.18 0 0 1-1.21-1.91 8.17 8.17 0 0 1-.44-2.83v-9.77h-4.72v-2.38h4.72v-4.35zm13.62-3.19h9.19v22.86h5.86v2.66h-15v-2.66h6.12V99.07h-6.12zm26.55 19.14l.8 2.17 5.48-13.77h3.44l-9.12 20.75a11.67 11.67 0 0 1-.81 1.48 7.34 7.34 0 0 1-1.19 1.45 6.28 6.28 0 0 1-1.62 1.11 4.89 4.89 0 0 1-2.15.45h-.48c-.18 0-.35 0-.53-.06l-.5-.1-.38-.08.5-2.51h1.46a2 2 0 0 0 1.15-.35 5 5 0 0 0 .94-.83 6.89 6.89 0 0 0 .69-1c.2-.34.35-.63.46-.85l1.23-2.39-7.74-17.13h3.44zM100.57 158a2.25 2.25 0 0 0-.21-1 2.29 2.29 0 0 0-.73-.81 5.94 5.94 0 0 0-1.36-.67 14.63 14.63 0 0 0-2.11-.56 21.25 21.25 0 0 1-2.82-.76 9.63 9.63 0 0 1-2.18-1.07 4.75 4.75 0 0 1-1.4-1.47 3.75 3.75 0 0 1-.5-1.95 4.19 4.19 0 0 1 .52-2.05 5.28 5.28 0 0 1 1.44-1.66 7.48 7.48 0 0 1 2.22-1.13 9.39 9.39 0 0 1 2.83-.41 9.55 9.55 0 0 1 3 .43 6.85 6.85 0 0 1 2.26 1.2 5.34 5.34 0 0 1 1.44 1.78 4.87 4.87 0 0 1 .51 2.2h-3.08a2.4 2.4 0 0 0-.3-1.14 3.08 3.08 0 0 0-.83-1 4 4 0 0 0-1.29-.7 5 5 0 0 0-1.7-.27 6 6 0 0 0-1.72.22 3.9 3.9 0 0 0-1.23.58 2.59 2.59 0 0 0-.74.85 2.3 2.3 0 0 0 0 1.94 2 2 0 0 0 .69.75 5.47 5.47 0 0 0 1.32.6 21.19 21.19 0 0 0 2.08.51 22.48 22.48 0 0 1 3 .81 8.59 8.59 0 0 1 2.21 1.09 4.48 4.48 0 0 1 1.37 1.49 3.9 3.9 0 0 1 .48 2 4.46 4.46 0 0 1-.54 2.18 5 5 0 0 1-1.51 1.67 7.09 7.09 0 0 1-2.3 1.08 10.56 10.56 0 0 1-2.94.39 10.2 10.2 0 0 1-3.26-.49 7.85 7.85 0 0 1-2.42-1.3 5.6 5.6 0 0 1-1.51-1.87 4.91 4.91 0 0 1-.52-2.21h3.07a3.13 3.13 0 0 0 .51 1.6 3.49 3.49 0 0 0 1.09 1 4.54 4.54 0 0 0 1.46.57 7.7 7.7 0 0 0 1.58.16 5.67 5.67 0 0 0 3.07-.71 2.2 2.2 0 0 0 1.05-1.87zm8.96-13.24h9.19v15.32h5.86v2.65h-15v-2.65h6.11v-12.65h-6.11zm5.71-4.72a1.92 1.92 0 0 1 .46-1.29 2.1 2.1 0 0 1 2.77 0 1.87 1.87 0 0 1 .46 1.29 1.76 1.76 0 0 1-.46 1.25 1.85 1.85 0 0 1-3.23-1.25zm15.64 4.72l.08 1.69a4 4 0 0 1 1.44-1.45 4.25 4.25 0 0 1 2.15-.54 3.23 3.23 0 0 1 3.3 1.92 4.23 4.23 0 0 1 1.41-1.38 4.1 4.1 0 0 1 2.11-.54 3.81 3.81 0 0 1 3 1.21 5.43 5.43 0 0 1 1.07 3.67v13.42h-2.93v-13.48c0-1.51-.69-2.26-2.07-2.24a3 3 0 0 0-.95.14 1.88 1.88 0 0 0-1.08 1 2.5 2.5 0 0 0-.2.71v13.83h-2.92v-13.46a2.55 2.55 0 0 0-.48-1.66 1.81 1.81 0 0 0-1.53-.56 2.52 2.52 0 0 0-1.5.38 2.25 2.25 0 0 0-.78 1v14.3h-2.92v-18zm34.17 9.24a13.32 13.32 0 0 1-.47 3.59 8.83 8.83 0 0 1-1.36 2.9 6.52 6.52 0 0 1-2.22 1.93 6.4 6.4 0 0 1-3 .7 7.25 7.25 0 0 1-2.9-.54 5.89 5.89 0 0 1-2.15-1.52v8.63h-3.08v-24.93h2.81l.15 2A6 6 0 0 1 155 145a6.85 6.85 0 0 1 2.95-.59 6.5 6.5 0 0 1 3.05.68 6.25 6.25 0 0 1 2.23 1.89 8.74 8.74 0 0 1 1.36 2.9 13.88 13.88 0 0 1 .47 3.7zm-3.05-.4a10.14 10.14 0 0 0-.29-2.5 6.62 6.62 0 0 0-.89-2.1 4.58 4.58 0 0 0-1.54-1.43A4.36 4.36 0 0 0 157 147a4.28 4.28 0 0 0-2.48.68 5 5 0 0 0-1.6 1.77v8.66a5 5 0 0 0 1.59 1.74 4.51 4.51 0 0 0 2.53.67 4.33 4.33 0 0 0 2.21-.54 4.42 4.42 0 0 0 1.52-1.46 6.49 6.49 0 0 0 .89-2.11A10.19 10.19 0 0 0 162 154zm8.78-16.38H180v22.86h5.87v2.65h-15.09v-2.65h6.11v-20.19h-6.11zm20.41 7.54h9.19v15.32h5.86v2.65h-15.05v-2.65h6.12v-12.65h-6.12zm5.72-4.72a1.87 1.87 0 0 1 .46-1.29 1.75 1.75 0 0 1 1.38-.52 1.78 1.78 0 0 1 1.38.52 1.88 1.88 0 0 1 .47 1.29 1.76 1.76 0 0 1-.47 1.25 1.81 1.81 0 0 1-1.38.5 1.78 1.78 0 0 1-1.38-.5 1.76 1.76 0 0 1-.46-1.29zm18.8 22.69v-15.59h-5v-2.38h5v-1.26a8.25 8.25 0 0 1 .51-3 5.8 5.8 0 0 1 3.65-3.52 8.72 8.72 0 0 1 2.89-.45 11.48 11.48 0 0 1 2.13.19c.69.12 1.41.27 2.14.46l-.37 2.54a11.48 11.48 0 0 0-1.59-.4 9.81 9.81 0 0 0-1.93-.18 3.87 3.87 0 0 0-4.34 4.39v1.26h6.93v2.38h-6.93v15.59zm22.46-6.38l.8 2.18 5.48-13.77h3.44l-9.12 20.75A13.81 13.81 0 0 1 238 167a7.72 7.72 0 0 1-1.19 1.44 6.26 6.26 0 0 1-1.63 1.11 4.85 4.85 0 0 1-2.18.45h-.48l-.54-.07-.49-.09-.39-.08.5-2.51a2.07 2.07 0 0 1 .32 0h1.14a2 2 0 0 0 1.16-.35 4.32 4.32 0 0 0 .93-.83 7.14 7.14 0 0 0 .7-1c.19-.35.34-.63.45-.85l1.23-2.39-7.74-17.13h3.44zm34.71-11.59h9.18v15.32h5.87v2.65h-15.05v-2.65H279v-12.65h-6.11zm5.71-4.72a1.87 1.87 0 0 1 .46-1.29 1.75 1.75 0 0 1 1.38-.52 1.78 1.78 0 0 1 1.38.52 1.88 1.88 0 0 1 .47 1.29 1.76 1.76 0 0 1-.47 1.25 1.81 1.81 0 0 1-1.38.5 1.78 1.78 0 0 1-1.38-.5 1.76 1.76 0 0 1-.46-1.29zm16.98 4.72l.21 2.66a7.29 7.29 0 0 1 2.41-2.19 6.71 6.71 0 0 1 3.19-.8 7.74 7.74 0 0 1 2.57.4 4.87 4.87 0 0 1 2 1.24 5.68 5.68 0 0 1 1.25 2.15 9.58 9.58 0 0 1 .44 3.1v11.41h-3.07v-11.34a6.61 6.61 0 0 0-.27-2 3.22 3.22 0 0 0-.79-1.35 3 3 0 0 0-1.27-.74 5.82 5.82 0 0 0-1.74-.23 4.79 4.79 0 0 0-2.72.77 5.71 5.71 0 0 0-1.87 2v12.89h-3.07v-18zm24.93-4.35v4.35h6.85v2.38h-6.85v9.76a4.72 4.72 0 0 0 .27 1.73 2.79 2.79 0 0 0 .73 1.09 2.7 2.7 0 0 0 1.07.57 5 5 0 0 0 1.29.17 9.29 9.29 0 0 0 1-.06l1-.14.94-.18.73-.15.43 2.17a4.48 4.48 0 0 1-.93.41 11.68 11.68 0 0 1-1.2.3 13.72 13.72 0 0 1-1.37.19c-.48 0-1 .07-1.43.07a7.06 7.06 0 0 1-2.24-.35 4.57 4.57 0 0 1-1.8-1.07 5.26 5.26 0 0 1-1.21-1.91 8.23 8.23 0 0 1-.44-2.84v-9.76h-4.64v-2.38h4.71v-4.35zm21.08 22.66a9.17 9.17 0 0 1-3.48-.65 8 8 0 0 1-2.71-1.81 8.25 8.25 0 0 1-1.76-2.76 9.35 9.35 0 0 1-.63-3.47v-.7a10.43 10.43 0 0 1 .69-3.9 9 9 0 0 1 1.86-2.9 8.09 8.09 0 0 1 2.62-1.82 7.61 7.61 0 0 1 3-.63 8 8 0 0 1 3.39.67A6.68 6.68 0 0 1 347 147a8.08 8.08 0 0 1 1.44 2.8 12.53 12.53 0 0 1 .47 3.49v1.38h-12.84a7 7 0 0 0 .47 2.31 5.85 5.85 0 0 0 1.17 1.88 5.33 5.33 0 0 0 1.76 1.27 5.5 5.5 0 0 0 2.28.47 6.14 6.14 0 0 0 2.92-.67 6.21 6.21 0 0 0 2.13-1.76l1.88 1.46a7.5 7.5 0 0 1-1.12 1.31A7.9 7.9 0 0 1 346 162a9 9 0 0 1-2 .78 9.75 9.75 0 0 1-2.42.29zm-.39-16.07a4.8 4.8 0 0 0-1.77.34 4.6 4.6 0 0 0-1.49 1 5.63 5.63 0 0 0-1.12 1.61 7.46 7.46 0 0 0-.64 2.2h9.67v-.23a7.36 7.36 0 0 0-.34-1.78 5.16 5.16 0 0 0-.86-1.58 4.41 4.41 0 0 0-1.42-1.13 4.57 4.57 0 0 0-2.03-.43zm24.65-2.57h.9c.31 0 .6.05.88.09a5.61 5.61 0 0 1 .79.14 2.86 2.86 0 0 1 .58.18l-.41 3a14.77 14.77 0 0 0-1.7-.29 13.13 13.13 0 0 0-1.69-.1 5.8 5.8 0 0 0-3.5 1 5.69 5.69 0 0 0-2 2.74v11.53h-3.09v-18h2.92l.15 2.86a8.25 8.25 0 0 1 2.63-2.34 7.09 7.09 0 0 1 3.54-.81zm20.45 18.3a3.28 3.28 0 0 1-.29-.87 7.52 7.52 0 0 1-.16-1.09 8.18 8.18 0 0 1-1 .88 7.21 7.21 0 0 1-2.73 1.23 6.87 6.87 0 0 1-1.66.19 7.53 7.53 0 0 1-2.59-.42 6.13 6.13 0 0 1-2-1.12 5 5 0 0 1-1.68-3.78 5.35 5.35 0 0 1 .59-2.59 5.1 5.1 0 0 1 1.67-1.85 7.71 7.71 0 0 1 2.6-1.11 14.69 14.69 0 0 1 3.39-.36h3.36v-1.42a3.43 3.43 0 0 0-.3-1.46 3.05 3.05 0 0 0-.85-1.1 3.84 3.84 0 0 0-1.33-.71 6.1 6.1 0 0 0-1.77-.25 5.19 5.19 0 0 0-1.64.24 3.77 3.77 0 0 0-1.22.61 2.74 2.74 0 0 0-.77.9 2.27 2.27 0 0 0-.28 1.09h-3.09a4.24 4.24 0 0 1 .51-1.92 5.53 5.53 0 0 1 1.41-1.71 7.49 7.49 0 0 1 2.24-1.22 9 9 0 0 1 3-.46 10.27 10.27 0 0 1 2.84.37 6.54 6.54 0 0 1 2.27 1.13 5.17 5.17 0 0 1 1.5 1.89 5.9 5.9 0 0 1 .55 2.64v8.35a11.87 11.87 0 0 0 .17 1.91 8.37 8.37 0 0 0 .46 1.75v.26zm-5.43-2.34a6 6 0 0 0 1.67-.23 6.1 6.1 0 0 0 1.42-.62 4.86 4.86 0 0 0 1.11-.87 4.09 4.09 0 0 0 .73-1V154h-2.86a9 9 0 0 0-4.18.8 2.65 2.65 0 0 0-1.5 2.51 3.32 3.32 0 0 0 .22 1.23 2.63 2.63 0 0 0 .68 1 3.25 3.25 0 0 0 1.13.64 5 5 0 0 0 1.58.21zm21.69.18a5 5 0 0 0 1.62-.26 4.68 4.68 0 0 0 1.4-.74 4 4 0 0 0 1-1.11 2.83 2.83 0 0 0 .39-1.39h2.91a4.76 4.76 0 0 1-.62 2.28 6.57 6.57 0 0 1-1.62 1.91 8.29 8.29 0 0 1-2.33 1.32 7.91 7.91 0 0 1-2.74.49 8.3 8.3 0 0 1-3.57-.73 7.47 7.47 0 0 1-2.55-2 8.67 8.67 0 0 1-1.54-2.86 11.31 11.31 0 0 1-.51-3.41v-.7a11.35 11.35 0 0 1 .51-3.41 8.57 8.57 0 0 1 1.54-2.86 7.35 7.35 0 0 1 2.55-2 8.16 8.16 0 0 1 3.57-.73 8.38 8.38 0 0 1 2.93.5 7.39 7.39 0 0 1 2.31 1.38 6.11 6.11 0 0 1 1.52 2.07 6 6 0 0 1 .55 2.56H407a3.85 3.85 0 0 0-.35-1.54 4.22 4.22 0 0 0-2.31-2.13 4.76 4.76 0 0 0-1.74-.32 4.59 4.59 0 0 0-2.4.58 4.67 4.67 0 0 0-1.57 1.49 6.47 6.47 0 0 0-.86 2.07 10.55 10.55 0 0 0-.25 2.31v.7a10.79 10.79 0 0 0 .25 2.33 6.75 6.75 0 0 0 .85 2.08 4.64 4.64 0 0 0 1.56 1.49 4.74 4.74 0 0 0 2.37.63zm20.04-20.16v4.35h6.84v2.38h-6.84v9.76a4.74 4.74 0 0 0 .26 1.73 2.79 2.79 0 0 0 .73 1.09 2.7 2.7 0 0 0 1.07.57 5 5 0 0 0 1.29.17 9.16 9.16 0 0 0 1-.06l1-.14.95-.18.72-.15.43 2.17a4 4 0 0 1-.93.41 10.5 10.5 0 0 1-1.2.3 13.32 13.32 0 0 1-1.37.19c-.48 0-1 .07-1.43.07a7.06 7.06 0 0 1-2.24-.35 4.57 4.57 0 0 1-1.8-1.07 5.11 5.11 0 0 1-1.2-1.91 8 8 0 0 1-.44-2.84v-9.76h-4.72v-2.38h4.72v-4.35zm13.62 4.35h9.18v15.32h5.87v2.65h-15.05v-2.65h6.11v-12.65h-6.11zm5.71-4.72a1.87 1.87 0 0 1 .46-1.29 2.09 2.09 0 0 1 2.76 0 1.88 1.88 0 0 1 .47 1.29 1.76 1.76 0 0 1-.47 1.25 2.15 2.15 0 0 1-2.76 0 1.76 1.76 0 0 1-.46-1.29zm16.98 4.72l.21 2.66a7.29 7.29 0 0 1 2.41-2.19 6.71 6.71 0 0 1 3.19-.8 7.74 7.74 0 0 1 2.57.4 4.87 4.87 0 0 1 2 1.24 5.68 5.68 0 0 1 1.25 2.15 9.58 9.58 0 0 1 .44 3.1v11.41h-3.07v-11.34a6.61 6.61 0 0 0-.27-2 3.22 3.22 0 0 0-.79-1.35 3 3 0 0 0-1.27-.74 5.82 5.82 0 0 0-1.74-.23 4.79 4.79 0 0 0-2.72.77 5.71 5.71 0 0 0-1.87 2v12.89h-3.07v-18zm17.1 8.84a13.46 13.46 0 0 1 .49-3.7 8.82 8.82 0 0 1 1.42-2.9 6.61 6.61 0 0 1 2.26-1.89 6.44 6.44 0 0 1 3-.68 6.71 6.71 0 0 1 2.92.59 5.93 5.93 0 0 1 2.13 1.7l.15-2h2.79v17.59a8.4 8.4 0 0 1-.56 3.16 6.49 6.49 0 0 1-4 3.8 9.19 9.19 0 0 1-3.09.5 8.89 8.89 0 0 1-1.59-.16 9 9 0 0 1-1.82-.51 8.31 8.31 0 0 1-1.78-1 5.91 5.91 0 0 1-1.47-1.48l1.6-1.84a7.39 7.39 0 0 0 1.16 1.15 5.71 5.71 0 0 0 2.44 1.17 6.41 6.41 0 0 0 1.23.12 5.88 5.88 0 0 0 2-.31 4.13 4.13 0 0 0 1.5-.93 4 4 0 0 0 .95-1.5 5.7 5.7 0 0 0 .34-2.06V161a6.14 6.14 0 0 1-2.12 1.57 6.94 6.94 0 0 1-2.83.54 6.39 6.39 0 0 1-3-.7 6.82 6.82 0 0 1-2.25-1.93 9.13 9.13 0 0 1-1.42-2.9A12.56 12.56 0 0 1 476 154zm3.08.35a11.18 11.18 0 0 0 .27 2.49 6.32 6.32 0 0 0 .86 2.07 4.23 4.23 0 0 0 3.7 2 5.34 5.34 0 0 0 1.44-.19 4.14 4.14 0 0 0 1.14-.54 4.78 4.78 0 0 0 .91-.83 5.64 5.64 0 0 0 .7-1.07v-8.24a5.66 5.66 0 0 0-.7-1 4.32 4.32 0 0 0-.91-.8 4.16 4.16 0 0 0-1.15-.53 4.74 4.74 0 0 0-1.4-.19 4.28 4.28 0 0 0-2.21.53 4.42 4.42 0 0 0-1.53 1.35 6.58 6.58 0 0 0-.86 2.1 11.2 11.2 0 0 0-.27 2.5zm41.04 2.27l.36 2.58.45-2.58 2.87-11.46h2l2.86 11.46.48 2.83.45-2.83 2-11.46h2.73l-3.83 18H528l-2.81-11-.46-2.79-.45 2.79-2.78 11h-2.42l-3.82-18H518zm18.17-11.46h9.19v15.32h5.86v2.65h-15.05v-2.65h6.11v-12.65h-6.11zM544 140a1.92 1.92 0 0 1 .46-1.29 2.1 2.1 0 0 1 2.77 0 1.87 1.87 0 0 1 .46 1.29 1.76 1.76 0 0 1-.46 1.25A1.85 1.85 0 0 1 544 140zm21.5.41v4.35h6.84v2.38h-6.84v9.76a4.72 4.72 0 0 0 .27 1.73 2.69 2.69 0 0 0 .73 1.09 2.64 2.64 0 0 0 1.07.57 4.85 4.85 0 0 0 1.29.17 9.29 9.29 0 0 0 1-.06l1-.14 1-.18.72-.15.44 2.17a4.35 4.35 0 0 1-.94.41 10.86 10.86 0 0 1-1.19.3 13.72 13.72 0 0 1-1.37.19c-.48 0-1 .07-1.44.07a7 7 0 0 1-2.23-.35 4.54 4.54 0 0 1-1.81-1.07 5.11 5.11 0 0 1-1.2-1.91 8.23 8.23 0 0 1-.44-2.84v-9.76h-4.72v-2.38h4.72v-4.35zm16.21 7.02a7.12 7.12 0 0 1 2.38-2.2 6.57 6.57 0 0 1 3.17-.8 7.74 7.74 0 0 1 2.57.4 5.11 5.11 0 0 1 2 1.27 5.85 5.85 0 0 1 1.25 2.19 10 10 0 0 1 .44 3.13v11.31h-3.07v-11.34a4.5 4.5 0 0 0-1.06-3.29 3.92 3.92 0 0 0-3-1.06 5.1 5.1 0 0 0-2.68.72 5.72 5.72 0 0 0-2 1.92v13h-3.07v-25.46h3.07zM239.1 190.52l4.76-11.15H249l-7.61 15.82v8.37h-4.65v-8.57l-7.49-15.62h5.12zm11.69 3.89a11.14 11.14 0 0 1 .57-3.63 8.13 8.13 0 0 1 1.65-2.9 7.63 7.63 0 0 1 2.66-1.93 8.81 8.81 0 0 1 3.59-.7 8.94 8.94 0 0 1 3.61.7 7.63 7.63 0 0 1 2.66 1.93 8.3 8.3 0 0 1 1.66 2.9 11.42 11.42 0 0 1 .56 3.63v.35a11.48 11.48 0 0 1-.56 3.64 8.53 8.53 0 0 1-1.65 2.9 7.4 7.4 0 0 1-2.66 1.92 8.83 8.83 0 0 1-3.58.69 9 9 0 0 1-3.62-.69 7.52 7.52 0 0 1-2.68-1.92 8.22 8.22 0 0 1-1.65-2.9 11.2 11.2 0 0 1-.57-3.64zm4.62.35a9.42 9.42 0 0 0 .22 2.11 5.26 5.26 0 0 0 .68 1.73 3.53 3.53 0 0 0 1.2 1.17 3.46 3.46 0 0 0 1.79.43 3.35 3.35 0 0 0 1.74-.43 3.5 3.5 0 0 0 1.19-1.17 5.48 5.48 0 0 0 .67-1.73 9.42 9.42 0 0 0 .22-2.11v-.35a9.28 9.28 0 0 0-.22-2.08 5.67 5.67 0 0 0-.67-1.73 3.45 3.45 0 0 0-1.19-1.18 3.86 3.86 0 0 0-3.54 0 3.45 3.45 0 0 0-1.19 1.18 5.44 5.44 0 0 0-.68 1.73 9.28 9.28 0 0 0-.22 2.08zM283.3 201a6.79 6.79 0 0 1-2.2 2.11 5.43 5.43 0 0 1-2.82.77 7.41 7.41 0 0 1-2.55-.43 5 5 0 0 1-2-1.37 6.54 6.54 0 0 1-1.28-2.4 11.49 11.49 0 0 1-.46-3.49v-10.6h4.62v10.66a9.47 9.47 0 0 0 .15 1.84 3.14 3.14 0 0 0 .51 1.21 2 2 0 0 0 .91.66 5.12 5.12 0 0 0 3.63-.33 3.44 3.44 0 0 0 1.31-1.44v-12.6h4.63v18h-4.18zm17.43-19.82v4.41h6.71V189h-6.71v7.73a5.1 5.1 0 0 0 .22 1.63 2.33 2.33 0 0 0 1.65 1.64 4.87 4.87 0 0 0 1.32.16c.35 0 .71 0 1.08-.05s.73-.07 1.07-.12l.94-.16c.3-.06.55-.11.76-.17l.45 3.18a6.28 6.28 0 0 1-1.13.49 12.66 12.66 0 0 1-1.38.34c-.49.09-1 .15-1.52.2s-1 .08-1.55.08a8.74 8.74 0 0 1-2.69-.39 5.38 5.38 0 0 1-2.06-1.21 5.46 5.46 0 0 1-1.32-2.1 8.86 8.86 0 0 1-.46-3.05V189H292v-3.4h4.1v-4.41zm23.4 19.82a6.79 6.79 0 0 1-2.2 2.11 5.4 5.4 0 0 1-2.81.77 7.47 7.47 0 0 1-2.56-.43 4.91 4.91 0 0 1-2-1.37 6.4 6.4 0 0 1-1.29-2.4 11.49 11.49 0 0 1-.46-3.49v-10.6h4.62v10.66a8.67 8.67 0 0 0 .16 1.84 3 3 0 0 0 .5 1.21 2.06 2.06 0 0 0 .92.66 4.22 4.22 0 0 0 1.38.19 4.27 4.27 0 0 0 2.24-.52 3.44 3.44 0 0 0 1.31-1.44v-12.6h4.64v18h-4.18zm25.15-6.24a14.17 14.17 0 0 1-.44 3.68 8.35 8.35 0 0 1-1.32 2.89 6.12 6.12 0 0 1-2.19 1.89 6.57 6.57 0 0 1-3.06.67 5.63 5.63 0 0 1-4.71-2.24l-.22 1.91h-4.15V178h4.62v9.17a5.6 5.6 0 0 1 1.88-1.44 6 6 0 0 1 2.55-.52 6.69 6.69 0 0 1 3.08.68 6.2 6.2 0 0 1 2.2 1.9 8.41 8.41 0 0 1 1.32 2.9 14.23 14.23 0 0 1 .44 3.68zm-4.61-.35a12.51 12.51 0 0 0-.17-2.08 5.44 5.44 0 0 0-.57-1.72 3.12 3.12 0 0 0-1.11-1.17 3.21 3.21 0 0 0-1.74-.43 3.55 3.55 0 0 0-2.05.53 3.37 3.37 0 0 0-1.22 1.46v7.16a3.37 3.37 0 0 0 1.22 1.46 3.61 3.61 0 0 0 2.08.53 3.36 3.36 0 0 0 1.73-.4 3 3 0 0 0 1.09-1.13 5.22 5.22 0 0 0 .57-1.71 13.11 13.11 0 0 0 .17-2.15zm17.55 9.48a9.92 9.92 0 0 1-3.77-.68 8.84 8.84 0 0 1-2.9-1.85 7.94 7.94 0 0 1-1.87-2.76 8.77 8.77 0 0 1-.66-3.4v-.66a10.52 10.52 0 0 1 .65-3.76 8.48 8.48 0 0 1 1.81-2.93 8.16 8.16 0 0 1 2.76-1.92 8.8 8.8 0 0 1 3.47-.68 8.93 8.93 0 0 1 3.46.64 7.21 7.21 0 0 1 2.58 1.81 7.67 7.67 0 0 1 1.6 2.79 11.27 11.27 0 0 1 .55 3.62v2h-12.19a4.69 4.69 0 0 0 .54 1.67 4.52 4.52 0 0 0 1 1.3 4.58 4.58 0 0 0 1.45.85 5.08 5.08 0 0 0 1.78.3 7.71 7.71 0 0 0 1.35-.13 6.23 6.23 0 0 0 1.29-.4 5.3 5.3 0 0 0 1.14-.64 4.41 4.41 0 0 0 .94-.89l2.3 2.49a6.2 6.2 0 0 1-1.12 1.2 7.14 7.14 0 0 1-1.63 1.05 10.28 10.28 0 0 1-4.56 1zm-.54-14.9a3.68 3.68 0 0 0-1.43.27 3.59 3.59 0 0 0-1.14.79 4.64 4.64 0 0 0-.82 1.23 6.82 6.82 0 0 0-.5 1.6h7.57v-.37a4.29 4.29 0 0 0-.28-1.38 3.19 3.19 0 0 0-.71-1.12 3.53 3.53 0 0 0-1.14-.75 4.16 4.16 0 0 0-1.55-.26zm44.38 9.52h-7.26l-1.42 5.05h-4.92l7.92-24.19h4.24l7.77 24.19h-4.91zm-6.11-4h5l-2.48-8.9zm19.6.18v8.87h-4.66v-24.19h8.27a10.28 10.28 0 0 1 3.57.58 8 8 0 0 1 2.72 1.59 7 7 0 0 1 1.72 2.45 7.93 7.93 0 0 1 .61 3.17 7.3 7.3 0 0 1-.61 3 6.89 6.89 0 0 1-1.72 2.38 8 8 0 0 1-2.72 1.57 10.53 10.53 0 0 1-3.57.57zm0-3.79h3.61a4.57 4.57 0 0 0 1.73-.3 3.62 3.62 0 0 0 1.22-.81 3.39 3.39 0 0 0 .73-1.19 4.16 4.16 0 0 0 .24-1.4 5 5 0 0 0-.24-1.58 3.68 3.68 0 0 0-.73-1.28 3.46 3.46 0 0 0-1.22-.86 4.38 4.38 0 0 0-1.73-.32h-3.61zM436 179.37h14v3.77h-4.7v16.67h4.7v3.75h-14v-3.75h4.6v-16.67H436z"/></svg>